/* XPM */
static const char * app_icon[] = {
"32 32 5 1",
" 	c None",
".	c #000000",
"+	c #FF5050",
"@	c #A00000",
"#	c #0000A0",
"                                ",
"                                ",
"              ........          ",
"              ........          ",
"          ................      ",
"          ................      ",
"          ........++++          ",
"          ........++++          ",
"          ....++++@@@@          ",
"          ....++++@@@@          ",
"          ....++++++++++++      ",
"          ....++++++++++++      ",
"          ....++++++++          ",
"          ....++++++++          ",
"          ....++++++++          ",
"          ....++++++++          ",
"          ....++++++++          ",
"          ....++++++++          ",
"              ++++              ",
"              ++++              ",
"              ####              ",
"              ####              ",
"          ############          ",
"          ############          ",
"          ############          ",
"          ############          ",
"      ################          ",
"      ################          ",
"  ####################          ",
"  ####################          ",
"  ########################+++   ",
"  ########################+++   "};
