/* XPM */
static const char *toolbar_textedit[] = {
/* columns rows colors chars-per-pixel */
"24 24 86 1",
"  c black",
". c #000000007F7F",
"X c #7F7F00007F7F",
"o c #7F7F7F7F0000",
"O c navy",
"+ c #000000008181",
"@ c #000000008282",
"# c #000000008383",
"$ c #000000008686",
"% c #000000008787",
"& c #000000008888",
"* c #000000008B8B",
"= c #000000008C8C",
"- c #000000009393",
"; c #000000009595",
": c #000000009898",
"> c #000000009D9D",
", c #000000009E9E",
"< c #00000000A6A6",
"1 c #00000000A9A9",
"2 c #00000000AAAA",
"3 c #00000000ACAC",
"4 c #00000000B3B3",
"5 c #00000000B9B9",
"6 c #00000000BFBF",
"7 c #00000000C1C1",
"8 c #00000000C3C3",
"9 c #00000000C6C6",
"0 c #00000000C8C8",
"q c #00000000CBCB",
"w c #00000000CCCC",
"e c MediumBlue",
"r c #00000000CECE",
"t c red",
"y c yellow",
"u c gray75",
"i c gray80",
"p c #CDCDCDCDCDCD",
"a c #CECECECECECE",
"s c gray81",
"d c #D0D0D0D0D0D0",
"f c gray82",
"g c #D2D2D2D2D2D2",
"h c LightGray",
"j c gray83",
"k c #D5D5D5D5D5D5",
"l c gray84",
"z c #D7D7D7D7D7D7",
"x c #D8D8D8D8D8D8",
"c c gray85",
"v c #DADADADADADA",
"b c gray86",
"n c gainsboro",
"m c gray87",
"M c #DFDFDFDFDFDF",
"N c #E1E1E1E1E1E1",
"B c #E2E2E2E2E2E2",
"V c gray89",
"C c #E4E4E4E4E4E4",
"Z c gray90",
"A c #E6E6E6E6E6E6",
"S c #E7E7E7E7E7E7",
"D c gray91",
"F c #E9E9E9E9E9E9",
"G c #EAEAEAEAEAEA",
"H c gray92",
"J c #ECECECECECEC",
"K c gray93",
"L c #EEEEEEEEEEEE",
"P c #EFEFEFEFEFEF",
"I c gray94",
"U c #F1F1F1F1F1F1",
"Y c gray95",
"T c #F3F3F3F3F3F3",
"R c #F4F4F4F4F4F4",
"E c gray96",
"W c #F6F6F6F6F6F6",
"Q c gray97",
"! c #F8F8F8F8F8F8",
"~ c #F9F9F9F9F9F9",
"^ c gray98",
"/ c #FBFBFBFBFBFB",
"( c gray99",
") c #FDFDFDFDFDFD",
"_ c #FEFEFEFEFEFE",
"` c gray100",
/* pixels */
"uuuuuuuuuuuuuuuuuuuuuuuu",
"u                       ",
"u yoyw```0```2`:`*```+``",
"u oytww`09``2,;`*$+`++``",
"u yot09`65`<,-`$`++`..`.",
"u XXX76`43```*`+`..`..``",
"u                       ",
"u ``````````````````````",
"u ``````````````````````",
"u ``````` ``````````` ``",
"u ``  ``` ``````````` `^",
"u ```` ``   ```  ``   ^^",
"u ``   `` `` ` ``` `` ^U",
"u ` `` `` `` ` ``` `^ WL",
"u ``   ``   ```  ``   LZ",
"u ```````````````^WWULZm",
"u ```````` ``^^^WUULGVmz",
"u ``  ``` ` ^UW  LG Vbzh",
"u ` `` ^^ WWUL G Vm bzpp",
"u `    W   LGZV  bz   pp",
"u ^ WWUUL ZVmmbz hh pp p",
"u WW   ZV mbzh  ppp pp p",
"u ULGZVmbzzhhpppppppiipi",
"u GZVmbzzhhhpppppppiiiii"
};
