/* XPM */
static const char *toolbar_close[] = {
/* columns rows colors chars-per-pixel */
"24 24 171 2",
"   c black",
".  c #A4A400001F1F",
"X  c #A8A800001E1E",
"o  c #AAAA00001E1E",
"O  c #AFAF00001B1B",
"+  c #ACAC00001D1D",
"@  c #B0B000001B1B",
"#  c #B2B200001B1B",
"$  c #B0B000001C1C",
"%  c #B5B500001A1A",
"&  c #B6B600001919",
"*  c #B6B600001A1A",
"=  c #B5B505051F1F",
"-  c #BCBC00001717",
";  c #BEBE00001616",
":  c #BEBE01011717",
">  c #B8B800001919",
",  c #B9B902021A1A",
"<  c #BABA00001818",
"1  c #BBBB00001818",
"2  c #BDBD02021A1A",
"3  c #A2A200002020",
"4  c #B5B509092323",
"5  c #BABA0C0C2323",
"6  c #B9B90D0D2424",
"7  c #BBBB0D0D2424",
"8  c #BEBE0A0A2020",
"9  c #BFBF0E0E2424",
"0  c #C1C100001515",
"q  c #C1C100001616",
"w  c #C4C400001414",
"e  c #C7C702021414",
"r  c #C0C005051B1B",
"t  c #C0C006061B1B",
"y  c #C4C403031818",
"u  c #C8C800001212",
"i  c #C9C900001313",
"p  c #C9C901011313",
"a  c #CBCB02021515",
"s  c #CCCC02021313",
"d  c #CECE00001111",
"f  c #CDCD05051616",
"g  c #CECE06061616",
"h  c #C8C80A0A1E1E",
"j  c #CCCC09091A1A",
"k  c #CCCC0B0B1E1E",
"l  c #D1D101011010",
"z  c #D1D102021111",
"x  c #D0D003031414",
"c  c #D5D502021010",
"v  c #D1D10C0C1D1D",
"b  c #D4D40A0A1919",
"n  c #D9D902021010",
"m  c #D8D804041111",
"M  c #D8D804041212",
"N  c #DBDB04041111",
"B  c #DEDE07071212",
"V  c #D9D908081414",
"C  c #DFDF09091515",
"Z  c #DADA0C0C1919",
"A  c #DCDC0C0C1919",
"S  c #D3D310101F1F",
"D  c #DADA13131E1E",
"F  c #DCDC10101B1B",
"G  c #DDDD11111D1D",
"H  c #C1C10E0E2424",
"J  c #C3C30F0F2525",
"K  c #C5C50E0E2020",
"L  c #C5C512122626",
"P  c #C9C910102222",
"I  c #C9C913132626",
"U  c #C8C814142626",
"Y  c #CDCD11112222",
"T  c #CDCD13132525",
"R  c #CFCF16162727",
"E  c #D3D312122020",
"W  c #D0D016162727",
"Q  c #D3D316162525",
"!  c #D7D718182626",
"~  c #D2D218182929",
"^  c #D5D51A1A2828",
"/  c #DADA19192626",
"(  c #DEDE18182424",
")  c #DFDF19192424",
"_  c #D9D91B1B2828",
"`  c #DCDC1F1F2B2B",
"'  c #DFDF1F1F2929",
"]  c #DFDF21212C2C",
"[  c #E7E704040D0D",
"{  c #E3E30A0A1313",
"}  c #E1E10B0B1515",
"|  c #E4E40D0D1515",
" . c #E7E70F0F1717",
".. c #EEEE0C0C1414",
"X. c #E4E411111B1B",
"o. c #E6E612121A1A",
"O. c #E9E917171E1E",
"+. c #ECEC12121A1A",
"@. c #ECEC15151C1C",
"#. c #EFEF17171C1C",
"$. c #F0F006060B0B",
"%. c #F2F21A1A1D1D",
"&. c #E1E118182323",
"*. c #E1E11F1F2929",
"=. c #E8E818182020",
"-. c #EAEA1F1F2626",
";. c #ECEC1E1E2525",
":. c #E8E81F1F2828",
">. c #F0F01D1D2323",
",. c #F1F11D1D2222",
"<. c #E2E222222B2B",
"1. c #E5E522222B2B",
"2. c #E5E524242C2C",
"3. c #E6E625252D2D",
"4. c #EEEE21212727",
"5. c #EEEE26262D2D",
"6. c #E7E728283030",
"7. c #EAEA2A2A3131",
"8. c #ECEC28283030",
"9. c #ECEC29293030",
"0. c #F5F520202323",
"q. c #F5F523232727",
"w. c #F3F325252929",
"e. c #F2F225252A2A",
"r. c #F0F027272C2C",
"t. c #F6F625252929",
"y. c #F7F72B2B2E2E",
"u. c #F9F928282B2B",
"i. c #F8F82C2C2D2D",
"p. c #FAFA2D2D2F2F",
"a. c #F0F02D2D3333",
"s. c #F3F32D2D3232",
"d. c #F5F52E2E3232",
"f. c #F4F431313535",
"g. c #F4F433333737",
"h. c #F5F536363939",
"j. c #F6F636363838",
"k. c #F6F636363A3A",
"l. c #F7F737373A3A",
"z. c #F6F638383B3B",
"x. c #FAFA31313333",
"c. c #FAFA32323434",
"v. c #F8F834343737",
"b. c #F9F934343737",
"n. c #FBFB36363737",
"m. c #FCFC33333434",
"M. c #FBFB39393B3B",
"N. c #F9F93B3B3D3D",
"B. c #FBFB3B3B3D3D",
"V. c #FCFC39393B3B",
"C. c #FCFC3C3C3D3D",
"Z. c #FDFD3F3F3F3F",
"A. c #FCFC3F3F4141",
"S. c #FBFB40404141",
"D. c #FCFC42424343",
"F. c #FDFD43434343",
"G. c #FEFE41414242",
"H. c #FEFE42424343",
"J. c #FDFD44444545",
"K. c #FDFD45454646",
"L. c #FDFD46464646",
"P. c #FDFD46464747",
"I. c #FEFE44444545",
"U. c #FEFE45454646",
"Y. c #FEFE46464747",
"T. c #FDFD47474848",
"R. c #FEFE47474848",
"E. c #FDFD48484949",
"W. c #FEFE48484848",
"Q. c gray100",
"!. c None",
/* pixels */
"!.!.!.!.!.!.!.!.!.!.!.!.!.!.!.!.!.!.!.!.!.!.!.!.",
"!.!.!.!.!.  !.!.!.!.!.!.!.!.!.!.!.!.  !.!.!.!.!.",
"!.!.!.!.  H.  !.!.!.!.!.!.!.!.!.!.  $.  !.!.!.!.",
"!.!.!.  Y.Q.H.  !.!.!.!.!.!.!.!.  ..Q.[   !.!.!.",
"!.!.  T.Q.Y.Y.Y.  !.!.!.!.!.!.  @.Q.C B n   !.!.",
"!.  T.Q.T.T.T.T.T.  !.!.!.!.  4.Q.F b f p s   !.",
"!.!.  T.T.W.T.W.W.W.  !.!.  s.Q.) S h r 2   !.!.",
"!.!.!.  W.T.T.T.T.T.Y.    k.Q.1./ I 2 4   !.!.!.",
"!.!.!.!.  Y.Y.Y.T.Y.Y.Z.N.h.9.' ~ H 4   !.!.!.!.",
"!.!.!.!.!.  Y.I.H.D.A.B.k.9.3./ U 6   !.!.!.!.!.",
"!.!.!.!.!.!.  H.Z.C.M.b.d.5.] Q L   !.!.!.!.!.!.",
"!.!.!.!.!.!.!.  M.b.x.y.w.-.( Y   !.!.!.!.!.!.!.",
"!.!.!.!.!.!.!.  m.p.u.q.;.O.D k   !.!.!.!.!.!.!.",
"!.!.!.!.!.!.  c.p.t.0.%.@.o.Z j 2   !.!.!.!.!.!.",
"!.!.!.!.!.  h.Q.w.;.@.+. .} V f y <   !.!.!.!.!.",
"!.!.!.!.  k.Q.w.;.@.o. .{ B M x p 2 <   !.!.!.!.",
"!.!.!.  l.Q.8.:.&.G A     M m d s 0 < &   !.!.!.",
"!.!.  k.Q.7.] / E v   !.!.  d d p 0 < & #   !.!.",
"!.  f.Q.6.] ! T K   !.!.!.!.  p w ; & # O .   !.",
"!.!.  3.] ~ U 9   !.!.!.!.!.!.  ; & O . .   !.!.",
"!.!.!.  T L 6   !.!.!.!.!.!.!.!.  % . 3   !.!.!.",
"!.!.!.!.  6   !.!.!.!.!.!.!.!.!.!.  3   !.!.!.!.",
"!.!.!.!.!.  !.!.!.!.!.!.!.!.!.!.!.!.  !.!.!.!.!.",
"!.!.!.!.!.!.!.!.!.!.!.!.!.!.!.!.!.!.!.!.!.!.!.!."
};
