/* XPM */
static const char *toolbar_open[] = {
/* columns rows colors chars-per-pixel */
"24 24 180 2",
"   c black",
".  c #76766F6F0000",
"X  c #777770700000",
"o  c #787871710000",
"O  c #797971710000",
"+  c #797972720000",
"@  c #7B7B74740000",
"#  c #7C7C74740000",
"$  c #7D7D75750000",
"%  c #7E7E76760000",
"&  c #7F7F77770000",
"*  c #808078780000",
"=  c #818179790000",
"-  c #82827A7A0000",
";  c #83837B7B0000",
":  c #86867E7E0000",
">  c #87877F7F0000",
",  c #888880800000",
"<  c #8A8A81810000",
"1  c #8A8A82820000",
"2  c #8D8D84840000",
"3  c #8E8E85850000",
"4  c #8E8E86860000",
"5  c #8F8F86860000",
"6  c #919188880000",
"7  c #93938A8A0000",
"8  c #94948B8B0000",
"9  c #95958B8B0000",
"0  c #95958C8C0000",
"q  c #95958D8D0000",
"w  c #98988E8E0000",
"e  c #9A9A90900000",
"r  c #9A9A91910000",
"t  c #9C9C93930000",
"y  c #9E9E93930000",
"u  c #9C9C94940000",
"i  c #A0A096960000",
"p  c #A0A097970000",
"a  c #A1A197970000",
"s  c #A1A198980000",
"d  c #A2A298980000",
"f  c #A3A39B9B0000",
"g  c #A6A69B9B0000",
"h  c #A5A59C9C0000",
"j  c #A7A79E9E0000",
"k  c #A8A89F9F0000",
"l  c #A9A99F9F0000",
"z  c #AAAAA0A00000",
"x  c #AAAAA1A10000",
"c  c #ABABA1A10000",
"v  c #AAAAA2A20000",
"b  c #ADADA4A40000",
"n  c #AFAFA4A40000",
"m  c #AFAFA5A50000",
"M  c #AEAEA6A60000",
"N  c #B0B0A8A80000",
"B  c #B2B2A9A90000",
"V  c #B3B3A8A80000",
"C  c #B2B2AAAA0000",
"Z  c #B3B3AAAA0000",
"A  c #B4B4ADAD0000",
"S  c #B6B6ACAC0000",
"D  c #B7B7AFAF0000",
"F  c #B8B8ACAC0000",
"G  c #B8B8ADAD0000",
"H  c #B9B9ADAD0000",
"J  c #B8B8AEAE0000",
"K  c #B9B9AFAF0000",
"L  c #BABAAEAE0000",
"P  c #BABAAFAF0000",
"I  c #BBBBAFAF0000",
"U  c #BBBBB0B00000",
"Y  c #BABAB2B20000",
"T  c #BBBBB3B30000",
"R  c #BCBCB0B00000",
"E  c #BCBCB1B10000",
"W  c #BCBCB3B30000",
"Q  c #BDBDB2B20000",
"!  c #BEBEB3B30000",
"~  c #BCBCB4B40000",
"^  c #BEBEB4B40000",
"/  c #BFBFB5B50000",
"(  c #BEBEB7B70000",
")  c #BFBFB7B70000",
"_  c #C0C0B5B50000",
"`  c #C1C1B6B60000",
"'  c #C0C0B8B80000",
"]  c #C1C1B8B80000",
"[  c #C1C1B9B90000",
"{  c #C2C2B8B80000",
"}  c #C3C3B9B90000",
"|  c #C3C3BABA0000",
" . c #C4C4BABA0000",
".. c #C5C5BBBB0000",
"X. c #C4C4BCBC0000",
"o. c #C5C5BCBC0000",
"O. c #C4C4BEBE0000",
"+. c #C6C6BCBC0000",
"@. c #C6C6BDBD0000",
"#. c #C6C6BFBF0000",
"$. c #C7C7BEBE0000",
"%. c #C7C7BFBF0000",
"&. c #C8C8BFBF0000",
"*. c #C6C6C0C00000",
"=. c #C9C9C0C00000",
"-. c #C8C8C2C20000",
";. c #CACAC1C10000",
":. c #CBCBC2C20000",
">. c #CBCBC4C40000",
",. c #CCCCC5C50000",
"<. c #CDCDC6C60000",
"1. c #CDCDC7C70000",
"2. c #CECEC5C50000",
"3. c #CECEC6C60000",
"4. c #CECEC7C70000",
"5. c #CFCFC7C70000",
"6. c #CECEC8C80000",
"7. c #CECEC9C90000",
"8. c #D0D0C8C80000",
"9. c #D0D0C9C90000",
"0. c #D2D2CBCB0000",
"q. c #D3D3CBCB0000",
"w. c #D2D2CDCD0000",
"e. c #D4D4CDCD0000",
"r. c #D4D4CECE0000",
"t. c #D5D5CECE0000",
"y. c #D5D5CFCF0000",
"u. c #D6D6CFCF0000",
"i. c #D5D5D0D00000",
"p. c #D6D6D0D00000",
"a. c #D6D6D1D10000",
"s. c #D8D8D1D10000",
"d. c #D8D8D2D20000",
"f. c #DADAD5D50000",
"g. c #DBDBD5D50000",
"h. c #DBDBD6D60000",
"j. c #DCDCD6D60000",
"k. c #DDDDD7D70000",
"l. c #DDDDD8D80000",
"z. c #DDDDD9D90000",
"x. c #DEDED8D80000",
"c. c #DEDEDADA0000",
"v. c #E0E0DADA0000",
"b. c #E0E0DCDC0000",
"n. c #E1E1DCDC0000",
"m. c #E1E1DDDD0000",
"M. c #E2E2DDDD0000",
"N. c #E2E2DEDE0000",
"B. c #E3E3DFDF0000",
"V. c #E4E4DFDF0000",
"C. c #E4E4E0E00000",
"Z. c #E5E5E1E10000",
"A. c #E5E5E2E20000",
"S. c #E6E6E2E20000",
"D. c #E6E6E3E30000",
"F. c #E7E7E4E40000",
"G. c #E9E9E5E50000",
"H. c #EAEAE7E70000",
"J. c #EBEBE8E80000",
"K. c #ECECE8E80000",
"L. c #ECECE9E90000",
"P. c #EDEDEAEA0000",
"I. c #EDEDEBEB0000",
"U. c #EFEFEBEB0000",
"Y. c #EFEFEDED0000",
"T. c #F0F0EEEE0000",
"R. c #F1F1EEEE0000",
"E. c #F1F1EFEF0000",
"W. c #F2F2EFEF0000",
"Q. c #F3F3F0F00000",
"!. c #F3F3F1F10000",
"~. c #F4F4F2F20000",
"^. c #F4F4F3F30000",
"/. c #F5F5F4F40000",
"(. c #F7F7F5F50000",
"). c #F7F7F6F60000",
"_. c #F9F9F8F80000",
"`. c #FAFAF9F90000",
"'. c #FBFBFBFB0000",
"]. c None",
/* pixels */
"].].].].].].].].].].].].].].].].].].].].].].].].",
"].].].].].].].].].].].].].].].].].].].].].].].].",
"].].].].].].].].].].].].].].].].].].].].].].].].",
"].].].].            ].].].].].].].].].].].].].].",
"].].].  !.T.U.H.C.M.  ].].].].].].].].].].].].].",
"].].  T.L.H.C.c.g.d.e.                ].].].].].",
"].  T.L.C.M.g.u.q.2.:.&.+.{ ` ! ! Y !   ].].].].",
"].  H.C.c.d.q.2.:.+. .{ ` ! ! I F F F   ].].].].",
"].  B.c.u.7.:.:. .` ` ! ! ! F F F F F   ].].].].",
"].  g.e.7.                                ].].].",
"].  e.5.:.  '._._.)./.!.I.D.c.u.:.{ F Z b   ].].",
"].  2.:.  _././.!.T.I.H.C.f.q.:.{ F m x h   ].].",
"].  :. .  /.T.T.L.D.M.c.u.1.*.T Z c h s y   ].].",
"].  +.{   I.L.C.M.h.u.7.*.( A b h i r w q   ].].",
"].   .  L.C.M.f.r.7.*.( D M j u r 7 5 4   ].].].",
"].  {   C.c.u.7.*.( D C j s r q 4 < < :   ].].].",
"].  {   c.e.2.| Y C x s u q 5 < : ; - %   ].].].",
"].    c.e.2.{ Y C x i r 7 4 > - * % %   ].].].].",
"].    f.7.+.~ C x s r 7 2 > - % @ @ .   ].].].].",
"].    d.7.{ F b h u q 4 > ; * # @ . .   ].].].].",
"].].                                  ].].].].].",
"].].].].].].].].].].].].].].].].].].].].].].].].",
"].].].].].].].].].].].].].].].].].].].].].].].].",
"].].].].].].].].].].].].].].].].].].].].].].].]."
};
