/* XPM */
static const char *toolbar_run[] = {
/* columns rows colors chars-per-pixel */
"24 24 100 2",
"   c black",
".  c gray50",
"X  c #939300002525",
"o  c #929200002626",
"O  c #949401012525",
"+  c #959502022626",
"@  c #969601012525",
"#  c #979702022626",
"$  c #989803032626",
"%  c #9A9A02022525",
"&  c #9D9D02022323",
"*  c #9C9C05052626",
"=  c #AAAA02021F1F",
"-  c #AFAF03031F1F",
";  c #B3B304041F1F",
":  c #B8B807071F1F",
">  c #A0A000002121",
",  c #A2A205052525",
"<  c #A4A400002020",
"1  c #A5A501012020",
"2  c #A4A404042323",
"3  c #A8A806062424",
"4  c #AEAE07072222",
"5  c #ABAB09092727",
"6  c #B1B105052020",
"7  c #B4B40C0C2525",
"8  c #BFBF0B0B2020",
"9  c #BCBC0D0D2424",
"0  c #BFBF15152A2A",
"q  c #C6C60C0C1F1F",
"w  c #C7C70F0F2323",
"e  c #C3C312122727",
"r  c #C6C618182B2B",
"t  c #CDCD16162727",
"y  c #CBCB1B1B2D2D",
"u  c #CBCB1C1C2E2E",
"i  c #CDCD1B1B2C2C",
"p  c #D0D011112121",
"a  c #D7D715152222",
"s  c #D4D415152424",
"d  c #D7D719192727",
"f  c #D3D31D1D2C2C",
"g  c #D5D51A1A2929",
"h  c #DCDC18182424",
"j  c #DBDB1E1E2B2B",
"k  c #D6D622222F2F",
"l  c #DDDD20202C2C",
"z  c #DDDD21212D2D",
"x  c #D9D926263232",
"c  c #DADA24243131",
"v  c #E3E320202929",
"b  c #E3E322222B2B",
"n  c #E3E326262F2F",
"m  c #E6E620202828",
"M  c #E6E623232D2D",
"N  c #E5E525252D2D",
"B  c #EAEA23232A2A",
"V  c #EAEA25252C2C",
"C  c #EDED28282D2D",
"Z  c #ECEC28282E2E",
"A  c #E1E128283131",
"S  c #E4E42D2D3636",
"D  c #E6E62C2C3434",
"F  c #E6E62F2F3737",
"G  c #E8E828283030",
"H  c #E9E92B2B3232",
"J  c #EBEB2D2D3333",
"K  c #EAEA2D2D3434",
"L  c #EFEF2B2B3131",
"P  c #EEEE2F2F3434",
"I  c #EFEF32323737",
"U  c #ECEC33333939",
"Y  c #EFEF37373C3C",
"T  c #EFEF38383D3D",
"R  c #F3F32F2F3232",
"E  c #F1F130303434",
"W  c #F2F232323636",
"Q  c #F6F634343737",
"!  c #F3F335353939",
"~  c #F3F337373B3B",
"^  c #F6F638383A3A",
"/  c #F4F43A3A3D3D",
"(  c #F6F63C3C3E3E",
")  c #F9F93C3C3E3E",
"_  c #F7F73E3E4040",
"`  c #F8F83F3F4040",
"'  c #FAFA3F3F4040",
"]  c #F8F840404141",
"[  c #FAFA40404141",
"{  c #FBFB42424343",
"}  c #F9F942424444",
"|  c #FAFA45454646",
" . c #FBFB45454646",
".. c #FBFB47474747",
"X. c #FBFB48484848",
"o. c #FBFB49494A4A",
"O. c #FCFC49494A4A",
"+. c #FCFC4B4B4C4C",
"@. c #FDFD4D4D4E4E",
"#. c None",
/* pixels */
"#.#.#.#.#.#.#.#.#.#.#.#.#.#.#.#.#.#.#.#.#.#.#.#.",
"#.#.#.#.#.#.#.#.#.#.#.#.#.      #.#.#.#.#.#.#.#.",
"#.#.#.#.#.. . . . . #.#.  O.[ Q   #.#.#.#.#.#.#.",
"#.#.#.#.#.#.#.#.#.#.#.  @.X.` W V   #.#.#.#.#.#.",
"#.#.#.#.#.#.#.#.#.#.#.  +.| ( P b   #.#.#.#.#.#.",
"#.#.#.#.#.. . . . . #.  X.} ~ H j   #.#.#.#.#.#.",
"#.#.#.#.#.#.#.#.#.#.#.  ..` U n g   #.#.#.#.#.#.",
"#.#.#.#.#.#.#.#.#.#.#.#.  / J l   #.#.#.#.#.#.#.",
"#.#.#.#.. . . . . #.#.  [ W H   #.#.#.#.#.#.#.#.",
"#.#.#.#.#.#.#.#.#.#.  ..) W M   #.#.#.#.#.#.#.#.",
"#.#.#.#.#.#.#.#.#.#.  { ^ L v s         #.#.#.#.",
"#.#.#.#.. . . . . #.  ' Q C   t   ; = =   #.#.#.",
"#.#.#.#.#.#.#.#.#.#.#.  R B h     4 = &   #.#.#.",
"#.#.#.#.#.#.#.#.#.#.#.#.  m a q 8       #.#.#.#.",
"#.#.#.#.#.. . . . . #.  V     q 6   #.#.#.#.#.#.",
"#.#.#.#.#.#.#.#.#.#.#.  n d w     #.#.#.#.#.#.#.",
"#.#.#.#.#.#.#.#.#.#.  D l t 9 4 2   #.#.#.#.#.#.",
"#.#.. . . . . #.#.  U A f e 7 3 &   #.#.#.#.#.#.",
"#.#.#.#.#.#.#.#.  T S k y   5 , $ X   #.#.#.#.#.",
"#.#.#.#.#.#.#.  T F x i   #.  * $ X   #.#.#.#.#.",
"#.. . . . . #.  D c i   #.#.  $ X o X   #.#.#.#.",
"#.#.#.#.#.#.#.#.  i 0   #.#.#.  X X o X   #.#.#.",
"#.#.#.#.#.#.#.#.#.    #.#.#.#.#.          #.#.#.",
"#.#.#.#.#.#.#.#.#.#.#.#.#.#.#.#.#.#.#.#.#.#.#.#."
};
