/* XPM */
static const char *toolbar_logedit[] = {
/* columns rows colors chars-per-pixel */
"24 24 94 2",
"   c black",
".  c #000000007F7F",
"X  c #7F7F00007F7F",
"o  c #7F7F7F7F0000",
"O  c navy",
"+  c #000000008181",
"@  c #000000008282",
"#  c #000000008383",
"$  c #000000008989",
"%  c #000000008A8A",
"&  c #000000008F8F",
"*  c #000000009090",
"=  c #000000009292",
"-  c #000000009898",
";  c #000000009B9B",
":  c #00000000A6A6",
">  c #00000000B2B2",
",  c #00000000B4B4",
"<  c #00000000BCBC",
"1  c #00000000BFBF",
"2  c #00000000C0C0",
"3  c #00000000C5C5",
"4  c #00000000C6C6",
"5  c #00000000C9C9",
"6  c #00000000CCCC",
"7  c MediumBlue",
"8  c #00000000D1D1",
"9  c #00000000D3D3",
"0  c red",
"q  c yellow",
"w  c #BCBCBCBCBCBC",
"e  c gray74",
"r  c gray",
"t  c gray75",
"y  c #C0C0C0C0C0C0",
"u  c #C1C1C1C1C1C1",
"i  c gray76",
"p  c #C3C3C3C3C3C3",
"a  c gray77",
"s  c #C5C5C5C5C5C5",
"d  c gray78",
"f  c #C8C8C8C8C8C8",
"g  c gray79",
"h  c #CACACACACACA",
"j  c gray80",
"k  c #CDCDCDCDCDCD",
"l  c gray81",
"z  c #D0D0D0D0D0D0",
"x  c gray82",
"c  c #D2D2D2D2D2D2",
"v  c LightGray",
"b  c gray83",
"n  c #D5D5D5D5D5D5",
"m  c gray84",
"M  c #D7D7D7D7D7D7",
"N  c #D8D8D8D8D8D8",
"B  c gray85",
"V  c #DADADADADADA",
"C  c gray86",
"Z  c gainsboro",
"A  c #DDDDDDDDDDDD",
"S  c gray87",
"D  c #DFDFDFDFDFDF",
"F  c #E1E1E1E1E1E1",
"G  c #E2E2E2E2E2E2",
"H  c gray89",
"J  c #E4E4E4E4E4E4",
"K  c gray90",
"L  c #E6E6E6E6E6E6",
"P  c #E7E7E7E7E7E7",
"I  c gray91",
"U  c #E9E9E9E9E9E9",
"Y  c #EAEAEAEAEAEA",
"T  c gray92",
"R  c #ECECECECECEC",
"E  c gray93",
"W  c #EEEEEEEEEEEE",
"Q  c #EFEFEFEFEFEF",
"!  c gray94",
"~  c #F1F1F1F1F1F1",
"^  c gray95",
"/  c #F3F3F3F3F3F3",
"(  c #F4F4F4F4F4F4",
")  c gray96",
"_  c #F6F6F6F6F6F6",
"`  c gray97",
"'  c #F8F8F8F8F8F8",
"]  c #F9F9F9F9F9F9",
"[  c gray98",
"{  c #FBFBFBFBFBFB",
"}  c gray99",
"|  c #FDFDFDFDFDFD",
" . c #FEFEFEFEFEFE",
".. c gray100",
/* pixels */
"t t t t t t t t t t t t t t t t t t t t t t t t ",
"t                                               ",
"t   q o q 9 8 ..5 1 , ..; = % ....@ ..@ ....... ",
"t   o q 0 8 6 ..1 , ..; ..% ..@ @ . ... ... . . ",
"t   q o 0 6 3 ..> : ..= ..@ ... ... ... ... . . ",
"t   X X X 3 < ....- & ..@ @ . ..... ... ....... ",
"t                                               ",
"t   ......................................] ( E ",
"t   ..................................] ] ( ~ I ",
"t   ....  ......  ........  ......  ....]     K ",
"t   ..........  ..  ....  ......  ..  ]   ( I Z ",
"t   ....  ....  ........  ......  ......      N ",
"t   ....  ..      ......  ....      ..(   I K   ",
"t   ....  ....  ........  ......  ..] (   I Z   ",
"t   ....  ....  ..........  ....  ] ( ~ I     z ",
"t   ..........................] ] ( ~ E G Z z h ",
"t   ........................] ] ~ E K G N z k h ",
"t   ..................]     ( ~     G N m   d d ",
"t   ........] ....] ..  ( ~ E   G Z   k       y ",
"t   ] ..] ..] ] ] ] ( (   E K         h h   y y ",
"y   ( ] ( ( ] ( ( ~ ~ I K   N   k h d y y   y y ",
"y   ~ ~ E E E E E I K     m z h       t t   y y ",
"t   I K K K K K G G Z N z k d y y t w t t t t y ",
"t   Z Z Z Z N N m m m k h d y t t w w w w t y y "
};
