/* XPM */
static const char *toolbar_wordsedit[] = {
/* columns rows colors chars-per-pixel */
"24 24 178 2",
"   c black",
".  c #00002F2F6E6E",
"X  c #00002F2F6F6F",
"o  c #00002D2D7070",
"O  c #00002C2C7373",
"+  c #00002F2F7171",
"@  c #00002F2F7373",
"#  c #00002D2D7676",
"$  c #00002F2F7B7B",
"%  c #000030306D6D",
"&  c #000032326C6C",
"*  c #000033336C6C",
"=  c #000033336E6E",
"-  c #000033336F6F",
";  c #000034346B6B",
":  c #000035356A6A",
">  c #000037376969",
",  c #000036366A6A",
"<  c #000033337171",
"1  c #000032327676",
"2  c #000035357373",
"3  c #000030307A7A",
"4  c #000035357878",
"5  c #000034347E7E",
"6  c #000034347F7F",
"7  c #000038387676",
"8  c #00003B3B7A7A",
"9  c #00003A3A7C7C",
"0  c #00003F3F7E7E",
"q  c #00003F3F7F7F",
"w  c #777777777777",
"e  c gray47",
"r  c #797979797979",
"t  c gray48",
"y  c #7B7B7B7B7B7B",
"u  c #7C7C7C7C7C7C",
"i  c gray49",
"p  c #7E7E7E7E7E7E",
"a  c gray50",
"s  c #00003B3B8282",
"d  c #00003B3B8484",
"f  c #00003C3C8484",
"g  c #000042428686",
"h  c #000045458383",
"j  c #000043438989",
"k  c #000044448989",
"l  c #00004B4B8A8A",
"z  c #00004D4D8888",
"x  c #00004E4E8E8E",
"c  c #000053538D8D",
"v  c #000054548B8B",
"b  c #00005B5B8F8F",
"n  c #000055559191",
"m  c #000058589292",
"M  c #000059599292",
"N  c #00005B5B9191",
"B  c #00005E5E9494",
"V  c #000061619292",
"C  c #000061619494",
"Z  c #000060609797",
"A  c #000061619696",
"S  c #000066669696",
"D  c #000066669797",
"F  c #000067679999",
"G  c #000069699A9A",
"H  c #00006B6B9898",
"J  c #00006B6B9A9A",
"K  c #00006C6C9B9B",
"L  c #00006F6F9A9A",
"P  c #00006F6F9B9B",
"I  c #00006D6D9C9C",
"U  c #000072729B9B",
"Y  c #000071719D9D",
"T  c #000072729C9C",
"R  c #000073739E9E",
"E  c #000074749E9E",
"W  c #000075759E9E",
"Q  c #000076769E9E",
"!  c #000076769F9F",
"~  c #000077779E9E",
"^  c #000077779F9F",
"/  c #000078789F9F",
"(  c #000079799F9F",
")  c #808080808080",
"_  c #818181818181",
"`  c gray51",
"'  c #838383838383",
"]  c #848484848484",
"[  c gray52",
"{  c #868686868686",
"}  c gray53",
"|  c #888888888888",
" . c #8B8B8B8B8B8B",
".. c gray55",
"X. c #8D8D8D8D8D8D",
"o. c #8E8E8E8E8E8E",
"O. c gray56",
"+. c gray57",
"@. c #939393939393",
"#. c gray58",
"$. c #959595959595",
"%. c gray59",
"&. c #979797979797",
"*. c #989898989898",
"=. c #9B9B9B9B9B9B",
"-. c #9D9D9D9D9D9D",
";. c #9F9F9F9F9F9F",
":. c #A0A0A0A0A0A0",
">. c gray63",
",. c gray64",
"<. c #A4A4A4A4A4A4",
"1. c gray65",
"2. c gray66",
"3. c #A9A9A9A9A9A9",
"4. c #AAAAAAAAAAAA",
"5. c #ACACACACACAC",
"6. c gray68",
"7. c #AEAEAEAEAEAE",
"8. c gray69",
"9. c #B1B1B1B1B1B1",
"0. c #B2B2B2B2B2B2",
"q. c gray70",
"w. c gray71",
"e. c #B6B6B6B6B6B6",
"r. c gray72",
"t. c gray73",
"y. c #BBBBBBBBBBBB",
"u. c #BCBCBCBCBCBC",
"i. c gray74",
"p. c gray75",
"a. c #C0C0C0C0C0C0",
"s. c #C1C1C1C1C1C1",
"d. c gray76",
"f. c #C3C3C3C3C3C3",
"g. c gray77",
"h. c #C5C5C5C5C5C5",
"j. c gray78",
"k. c #C8C8C8C8C8C8",
"l. c gray79",
"z. c #CACACACACACA",
"x. c #CBCBCBCBCBCB",
"c. c gray80",
"v. c #CDCDCDCDCDCD",
"b. c #CECECECECECE",
"n. c gray81",
"m. c #D2D2D2D2D2D2",
"M. c LightGray",
"N. c gray83",
"B. c #D7D7D7D7D7D7",
"V. c #D8D8D8D8D8D8",
"C. c #DADADADADADA",
"Z. c gainsboro",
"A. c #DDDDDDDDDDDD",
"S. c #DFDFDFDFDFDF",
"D. c gray88",
"F. c #E1E1E1E1E1E1",
"G. c #E2E2E2E2E2E2",
"H. c #E4E4E4E4E4E4",
"J. c #E6E6E6E6E6E6",
"K. c #E7E7E7E7E7E7",
"L. c gray91",
"P. c gray92",
"I. c #ECECECECECEC",
"U. c gray93",
"Y. c #EEEEEEEEEEEE",
"T. c #EFEFEFEFEFEF",
"R. c gray94",
"E. c #F1F1F1F1F1F1",
"W. c gray95",
"Q. c #F3F3F3F3F3F3",
"!. c gray96",
"~. c #F6F6F6F6F6F6",
"^. c #F8F8F8F8F8F8",
"/. c #F9F9F9F9F9F9",
"(. c gray98",
"). c #FBFBFBFBFBFB",
"_. c gray99",
"`. c None",
/* pixels */
"`.`.`.`.`.`.`.`.`.`.`.`.`.`.`.`.`.`.`.`.`.`.`.`.",
"`.`.`.                                    `.`.`.",
"`.`.  ).(._.(.(.).~.W.W.I.K.F.Z.V.m.b.z.j.  `.`.",
"`.  )._._.(.(.^.!.W.R.P.K.F.Z.B.m.c.k.g.s.s.  `.",
"`.  ).).E E E ( ( ( ( ( E E E E P F B n p.t.  `.",
"`.  ).).(.^.!.W.I.L.G.Z.V.B.n.x.j.s.s.i.t.y.  `.",
"`.  ).).( ( ( ( ( ( E E T K F A c n j s e.q.  `.",
"`.  ).).~.W.I.K.F.C.M.n.z.j.f.s.p.i.w.q.8.7.  `.",
"`.  ^.^.( ( E E T P F D B c x k s 6 $ $ 2.1.  `.",
"`.  ~.W.Y.K.F.V.B.b.z.s.a.i.y.w.0.5.2.<.;.-.  `.",
"`.  W.Y.U K H D B N c l g s 6 3 # O . . &.$.  `.",
"`.  U.K.G.C.m.b.s.i.y.w.0.7.4.<.,.=.&.@.O...  `.",
"`.  K.Z.V b v z h 0 9 4 1 @ @ . = & : : [ [   `.",
"`.  V.N.b.g.y.w.7.4.<.;.-.*.$.+.o. .[ [ ` `   `.",
"`.  n.z.h 0 9 7 2 < = = = : : : : > : : i i   `.",
"`.  s.y.0.4.<.*.$.+... .| [ [ ` ) p i y y w   `.",
"`.`.  7.,.-.$.....| [ ` ` i ` i y y y w w   `.`.",
"`.`.`.        | ` `                       `.`.`.",
"`.`.`.`.`.`.  ` i i   `.`.`.`.`.`.`.`.`.`.`.`.`.",
"`.`.`.`.    ` i y   `.`.`.`.`.`.`.`.`.`.`.`.`.`.",
"`.`.`.  ` i i y   `.`.`.`.`.`.`.`.`.`.`.`.`.`.`.",
"`.`.`.          `.`.`.`.`.`.`.`.`.`.`.`.`.`.`.`.",
"`.`.`.`.`.`.`.`.`.`.`.`.`.`.`.`.`.`.`.`.`.`.`.`.",
"`.`.`.`.`.`.`.`.`.`.`.`.`.`.`.`.`.`.`.`.`.`.`.`."
};
