/* XPM */
static const char *toolbar_viewedit[] = {
/* width height num_colors chars_per_pixel */
"    24    24       34            1",
/* colors */
". c #000000",
"# c #00ffff",
"a c #4d4d4d",
"b c #7f0000",
"c c #800000",
"d c #969696",
"e c #bfbfbf",
"f c #cd0034",
"g c #cd0035",
"h c #ce0034",
"i c #cf0033",
"j c #d00031",
"k c #d00032",
"l c #d2002f",
"m c #d5002c",
"n c #d7002b",
"o c #da0027",
"p c #df0021",
"q c #df0022",
"r c #e1001f",
"s c #e5001c",
"t c #ea0016",
"u c #ed0013",
"v c #ef0010",
"w c #f00010",
"x c #f3000d",
"y c #f70008",
"z c #f80008",
"A c #fa0005",
"B c #fb0004",
"C c #fe0001",
"D c #ff5050",
"E c #ffae00",
"F c #ffff00",
/* pixels */
"eeeeeeeeeeeeeeeeeeeeeeee",
"eeeeebbeeeeeeeeeeeeeeeee",
"eeeeebbbbeeeeeeeeeeeeeee",
"eeeee##bbdeeeeeeeeeeeeee",
"eeeee######eeeeeeeeeeeee",
"eeeee########eeeeeeeeeee",
"eeeeeaaaaaaFFeeeeeeeeeee",
"eeeeeaaaaFFFFFFeeeeeeeee",
"eeeeeaaaaFFFFddeeeeeeeee",
"eeeeeaaFFF....eeeeeeeeee",
"eeeeeedFFF.EEE.eeeeeeeee",
"eeeeeeeDDD.EE.B.eeeeeeee",
"eeeeeDDDDD.E.Byv.eeeeeee",
"eeeeeDDDDDD.CAxtq.eeeeee",
"eeeeeDDFFDDd.zwsol.eeeee",
"eeeeeDDFFDDde.urnkg.eeee",
"eeeeeDDFFDDdee.pmkgg.eee",
"eeeeeDDFFDDdeee.mifg.eee",
"eeeeeDDFFFFdeeee.jhg.eee",
"eeeeeDDccFFFFeeee...eeee",
"eeeeeccccccFFeeeeeeeeeee",
"eeeee######ddeeeeeeeeeee",
"eeeee######deeeeeeeeeeee",
"eeeeeeeeeeeeeeeeeeeeeeee"
};
