/* XPM */
static const char *toolbar_picedit[] = {
/* width height num_colors chars_per_pixel */
"    24    24      172            2",
/* colors */
".. c #000000",
".# c #0000ac",
".a c #0000ad",
".b c #0000ae",
".c c #0000af",
".d c #0000b1",
".e c #0000b2",
".f c #0000b4",
".g c #0000b5",
".h c #0000b7",
".i c #0000b8",
".j c #0000ba",
".k c #0000bc",
".l c #0000be",
".m c #0000bf",
".n c #0000c1",
".o c #0000c2",
".p c #0000c3",
".q c #0000c4",
".r c #0000c6",
".s c #0000c7",
".t c #0000c8",
".u c #0000ca",
".v c #0000cb",
".w c #0000cc",
".x c #0000ce",
".y c #0000d0",
".z c #0000d2",
".A c #0000d4",
".B c #0000d5",
".C c #0000d6",
".D c #0000d8",
".E c #0000da",
".F c #0000db",
".G c #0000dc",
".H c #0000de",
".I c #0000e0",
".J c #0000e1",
".K c #0000e2",
".L c #0000e3",
".M c #0000e5",
".N c #0000e7",
".O c #0000e9",
".P c #0000ea",
".Q c #0000eb",
".R c #0000ec",
".S c #0000ed",
".T c #0000ef",
".U c #006500",
".V c #006600",
".W c #006700",
".X c #006800",
".Y c #006900",
".Z c #006a00",
".0 c #006b00",
".1 c #006c00",
".2 c #006d00",
".3 c #006e00",
".4 c #006f00",
".5 c #007000",
".6 c #007100",
".7 c #00ac00",
".8 c #00ad00",
".9 c #00af00",
"#. c #00b000",
"## c #00b100",
"#a c #00b200",
"#b c #00b300",
"#c c #00b400",
"#d c #00b500",
"#e c #00b600",
"#f c #00b700",
"#g c #00b900",
"#h c #00bb00",
"#i c #00bc00",
"#j c #00be00",
"#k c #00bf00",
"#l c #00c100",
"#m c #00c200",
"#n c #00c300",
"#o c #00c500",
"#p c #00c700",
"#q c #00c800",
"#r c #00c900",
"#s c #00ca00",
"#t c #00cb00",
"#u c #00cc00",
"#v c #00cd00",
"#w c #00ce00",
"#x c #00cf00",
"#y c #00d000",
"#z c #00d100",
"#A c #00d200",
"#B c #00d2d2",
"#C c #00d300",
"#D c #00d4d4",
"#E c #00d500",
"#F c #00d600",
"#G c #00d700",
"#H c #00d7d7",
"#I c #00d800",
"#J c #00d900",
"#K c #00da00",
"#L c #00dada",
"#M c #00db00",
"#N c #00dc00",
"#O c #00dcdc",
"#P c #00dd00",
"#Q c #00dddd",
"#R c #00de00",
"#S c #00df00",
"#T c #00dfdf",
"#U c #00e000",
"#V c #00e0e0",
"#W c #00e100",
"#X c #00e1e1",
"#Y c #00e200",
"#Z c #00e2e2",
"#0 c #00e300",
"#1 c #00e3e3",
"#2 c #00e400",
"#3 c #00e4e4",
"#4 c #00e500",
"#5 c #00e5e5",
"#6 c #00e600",
"#7 c #00e6e6",
"#8 c #00e700",
"#9 c #00e7e7",
"a. c #00e800",
"a# c #00e8e8",
"aa c #00e900",
"ab c #00e9e9",
"ac c #00ea00",
"ad c #00eaea",
"ae c #00eb00",
"af c #00ebeb",
"ag c #00ec00",
"ah c #00ecec",
"ai c #00ed00",
"aj c #00eded",
"ak c #00ee00",
"al c #00eeee",
"am c #00efef",
"an c #00f000",
"ao c #00f0f0",
"ap c #00f1f1",
"aq c #00f200",
"ar c #00f2f2",
"as c #00f3f3",
"at c #00f400",
"au c #00f4f4",
"av c #00f5f5",
"aw c #00f7f7",
"ax c #00f8f8",
"ay c #5a0000",
"az c #5b0000",
"aA c #5c0000",
"aB c #5d0000",
"aC c #5e0000",
"aD c #5f0000",
"aE c #610000",
"aF c #620000",
"aG c #640000",
"aH c #bfbfbf",
"aI c #f5f500",
"aJ c #f6f600",
"aK c #f7f700",
"aL c #f8f800",
"aM c #f9f900",
"aN c #fafa00",
"aO c #fbfb00",
"aP c #fcfc00",
/* pixels */
"aHaHaHaHaHaHaHaHaHaHaHaHaHaHaHaHaHaHaHaHaHaHaHaH",
"aHaHaHaHaHaHaHaHaHaHaHaHaHaHaHaHaHaHaHaHaHaHaHaH",
"aH............................................aH",
"aH..aPaOaNaNaNaxawavauauapaoalafafaba##3#3#X..aH",
"aH..aOaNaMaMaMawavauarapalajafafa##9#3.6.5.3..aH",
"aH..aNaNaLaLaKavauaraoalajadaba##5#1.4.4.2.1..aH",
"aH..aMaLaKaJauarapaoalajada##7#3#Z.4.3.2.1.0..aH",
"aH..aLaKaIavapapamajahaf#9#5#3#V.4.3.1.1.Z.Y..aH",
"aH..awavauaraoamaladab#7#5#Z#X#Q#L.1.0.Y.X.W..aH",
"aH..avasaraoalajada##7#3#X#T#O#L#H#D#B.W.V.U..aH",
"aH..ataqanakagae#8#6#0#W#S#N#J#G#E#z#v#uaGaF..aH",
"aH..aqanaiagaa#8#2#0#W#R#M#J#E#C#y#v#t#qaFaE..aH",
"aH..anakaeaaa.#4#Y#S#P#M#J#F#A#x#v#r#p#naEaD..aH",
"aH...T.Raca.#4#Y#S#N#K#I#E#z#w#u#q#p#m#laDaB..aH",
"aH...S.P.N#4#Y#S#N#K#G#E#y#w#u#p#o#m#jaCaBaA..aH",
"aH...Q.N.M.L#S#P#J#G#E#A#v#t#p#o#m#kaCaBazay..aH",
"aH...O.M.K.I.G.E.C.A.z#x#s#q#o#m#k#h#g#f#c#b..aH",
"aH..a..L.J.H.F.D.A.z.x.v.s.q.p.m#i#g#f#d#a.9..aH",
"aH..#6#0#S.G.D.B.z.y.w.t.q.p.m.k.j.h.f.e.c.b..aH",
"aH..#2#U#P#K#G#C#y#v.u.r.o.n.l.j.i.g.e.d.a.#..aH",
"aH..#0#S#M#J#E#A#x#t#q#o#l#j#h#g#e#b###..8.7..aH",
"aH............................................aH",
"aHaHaHaHaHaHaHaHaHaHaHaHaHaHaHaHaHaHaHaHaHaHaHaH",
"aHaHaHaHaHaHaHaHaHaHaHaHaHaHaHaHaHaHaHaHaHaHaHaH"
};
