/* XPM */
static const char *toolbar_run[] = {
/* width height num_colors chars_per_pixel */
"    24    24      100            2",
/* colors */
".. c #000000",
".# c #7f7f7f",
".a c #920026",
".b c #930025",
".c c #940125",
".d c #950226",
".e c #960125",
".f c #970226",
".g c #980326",
".h c #9a0225",
".i c #9c0526",
".j c #9d0223",
".k c #a00021",
".l c #a20525",
".m c #a40020",
".n c #a40423",
".o c #a50120",
".p c #a80624",
".q c #aa021f",
".r c #ab0927",
".s c #ae0722",
".t c #af031f",
".u c #b10520",
".v c #b3041f",
".w c #b40c25",
".x c #b8071f",
".y c #bc0d24",
".z c #bf0b20",
".A c #bf152a",
".B c #bfbfbf",
".C c #c31227",
".D c #c60c1f",
".E c #c6182b",
".F c #c70f23",
".G c #cb1b2d",
".H c #cb1c2e",
".I c #cd1627",
".J c #cd1b2c",
".K c #d01121",
".L c #d31d2c",
".M c #d41524",
".N c #d51a29",
".O c #d6222f",
".P c #d71522",
".Q c #d71927",
".R c #d92632",
".S c #da2431",
".T c #db1e2b",
".U c #dc1824",
".V c #dd202c",
".W c #dd212d",
".X c #e12831",
".Y c #e32029",
".Z c #e3222b",
".0 c #e3262f",
".1 c #e42d36",
".2 c #e5252d",
".3 c #e62028",
".4 c #e6232d",
".5 c #e62c34",
".6 c #e62f37",
".7 c #e82830",
".8 c #e92b32",
".9 c #ea232a",
"#. c #ea252c",
"## c #ea2d34",
"#a c #eb2d33",
"#b c #ec282e",
"#c c #ec3339",
"#d c #ed282d",
"#e c #ee2f34",
"#f c #ef2b31",
"#g c #ef3237",
"#h c #ef373c",
"#i c #ef383d",
"#j c #f13034",
"#k c #f23236",
"#l c #f32f32",
"#m c #f33539",
"#n c #f3373b",
"#o c #f43a3d",
"#p c #f63437",
"#q c #f6383a",
"#r c #f63c3e",
"#s c #f73e40",
"#t c #f83f40",
"#u c #f84041",
"#v c #f93c3e",
"#w c #f94244",
"#x c #fa3f40",
"#y c #fa4041",
"#z c #fa4546",
"#A c #fb4243",
"#B c #fb4546",
"#C c #fb4747",
"#D c #fb4848",
"#E c #fb494a",
"#F c #fc494a",
"#G c #fc4b4c",
"#H c #fd4d4e",
/* pixels */
".B.B.B.B.B.B.B.B.B.B.B.B.B.B.B.B.B.B.B.B.B.B.B.B",
".B.B.B.B.B.B.B.B.B.B.B.B.B.......B.B.B.B.B.B.B.B",
".B.B.B.B.B.#.#.#.#.#.B.B..#F#y#p...B.B.B.B.B.B.B",
".B.B.B.B.B.B.B.B.B.B.B..#H#D#t#k#....B.B.B.B.B.B",
".B.B.B.B.B.B.B.B.B.B.B..#G#z#r#e.Z...B.B.B.B.B.B",
".B.B.B.B.B.#.#.#.#.#.B..#E#w#n.8.T...B.B.B.B.B.B",
".B.B.B.B.B.B.B.B.B.B.B..#C#s#g.0.N...B.B.B.B.B.B",
".B.B.B.B.B.B.B.B.B.B.B.B..#o#a.V...B.B.B.B.B.B.B",
".B.B.B.B.#.#.#.#.#.B.B..#u#m.7...B.B.B.B.B.B.B.B",
".B.B.B.B.B.B.B.B.B.B..#B#v#j.4...B.B.B.B.B.B.B.B",
".B.B.B.B.B.B.B.B.B.B..#A#q#f.Y.M.........B.B.B.B",
".B.B.B.B.#.#.#.#.#.B..#x#p#d...K...v.q.m...B.B.B",
".B.B.B.B.B.B.B.B.B.B.B..#l.9.U.....t.o.k...B.B.B",
".B.B.B.B.B.B.B.B.B.B.B.B...3.P.D.x.......B.B.B.B",
".B.B.B.B.B.#.#.#.#.#.B..#b.....z.u...B.B.B.B.B.B",
".B.B.B.B.B.B.B.B.B.B.B...2.Q.F.....B.B.B.B.B.B.B",
".B.B.B.B.B.B.B.B.B.B..##.W.I.y.s.n...B.B.B.B.B.B",
".B.B.#.#.#.#.#.B.B..#c.X.L.C.w.p.j...B.B.B.B.B.B",
".B.B.B.B.B.B.B.B..#i.1.O.E...r.l.h.e...B.B.B.B.B",
".B.B.B.B.B.B.B..#h.6.R.G...B...i.f.b...B.B.B.B.B",
".B.#.#.#.#.#.B...5.S.H...B.B...g.d.a.a...B.B.B.B",
".B.B.B.B.B.B.B.B...J.A...B.B.B...c.b.a.a...B.B.B",
".B.B.B.B.B.B.B.B.B.....B.B.B.B.B...........B.B.B",
".B.B.B.B.B.B.B.B.B.B.B.B.B.B.B.B.B.B.B.B.B.B.B.B"
};
