/* XPM */
static const char *toolbar_textedit[] = {
/* width height num_colors chars_per_pixel */
"    24    24       86            2",
/* colors */
".. c #000000",
".# c #00007f",
".a c #000080",
".b c #000081",
".c c #000082",
".d c #000083",
".e c #000086",
".f c #000087",
".g c #000088",
".h c #00008b",
".i c #00008c",
".j c #000093",
".k c #000095",
".l c #000098",
".m c #00009d",
".n c #00009e",
".o c #0000a6",
".p c #0000a9",
".q c #0000aa",
".r c #0000ac",
".s c #0000b3",
".t c #0000b9",
".u c #0000bf",
".v c #0000c1",
".w c #0000c3",
".x c #0000c6",
".y c #0000c8",
".z c #0000cb",
".A c #0000cc",
".B c #0000cd",
".C c #0000ce",
".D c #7f007f",
".E c #7f7f00",
".F c #bfbfbf",
".G c #cccccc",
".H c #cdcdcd",
".I c #cecece",
".J c #cfcfcf",
".K c #d0d0d0",
".L c #d1d1d1",
".M c #d2d2d2",
".N c #d3d3d3",
".O c #d4d4d4",
".P c #d5d5d5",
".Q c #d6d6d6",
".R c #d7d7d7",
".S c #d8d8d8",
".T c #d9d9d9",
".U c #dadada",
".V c #dbdbdb",
".W c #dcdcdc",
".X c #dedede",
".Y c #dfdfdf",
".Z c #e1e1e1",
".0 c #e2e2e2",
".1 c #e3e3e3",
".2 c #e4e4e4",
".3 c #e5e5e5",
".4 c #e6e6e6",
".5 c #e7e7e7",
".6 c #e8e8e8",
".7 c #e9e9e9",
".8 c #eaeaea",
".9 c #ebebeb",
"#. c #ececec",
"## c #ededed",
"#a c #eeeeee",
"#b c #efefef",
"#c c #f0f0f0",
"#d c #f1f1f1",
"#e c #f2f2f2",
"#f c #f3f3f3",
"#g c #f4f4f4",
"#h c #f5f5f5",
"#i c #f6f6f6",
"#j c #f7f7f7",
"#k c #f8f8f8",
"#l c #f9f9f9",
"#m c #fafafa",
"#n c #fbfbfb",
"#o c #fcfcfc",
"#p c #fdfdfd",
"#q c #fefefe",
"#r c #ff0000",
"#s c #ffff00",
"#t c #ffffff",
/* pixels */
".F.F.F.F.F.F.F.F.F.F.F.F.F.F.F.F.F.F.F.F.F.F.F.F",
".F..............................................",
".F..#s.E#s.C#t#t#t.z#t#t#t.q#t.l#t.i#t#t#t.c#t#t",
".F...E#s#r.B.A#t.y.w#t#t.p.n.k#t.g.e.d#t.b.a#t#t",
".F..#s.E#r.y.x#t.u.t#t.o.m.j#t.f#t.b.a#t.#.##t.#",
".F...D.D.D.v.u#t.s.r#t#t#t.h#t.c#t.#.##t.#.##t#t",
".F..............................................",
".F..#t#t#t#t#t#t#t#t#t#t#t#t#t#t#t#t#t#t#t#t#t#t",
".F..#t#t#t#t#t#t#t#t#t#t#t#t#t#t#t#t#t#t#t#t#t#q",
".F..#t#t#t#t#t#t#t..#t#t#t#t#t#t#t#t#t#t#t..#q#p",
".F..#t#t....#t#t#t..#t#t#t#t#t#t#t#t#t#t#t..#p#n",
".F..#t#t#t#t..#t#t......#t#t#t....#t#t......#n#k",
".F..#t#t......#t#t..#t#t..#t..#t#t#t..#q#p..#k#f",
".F..#t..#t#t..#t#t..#t#t..#t..#t#t#t..#p#o..#g#.",
".F..#t#t......#t#t......#t#t#t....#q#p......##.4",
".F..#t#t#t#t#t#t#t#t#t#t#q#q#q#p#n#n#k#i#e#..4.X",
".F..#t#t#t#t#t#t#t#q..#q#p#n#m#l#i#h#e#a.9.2.X.R",
".F..#t#t....#p#p#p..#o..#k#h#g....#..7...Y.V.Q.M",
".F..#t..#p#p..#n#n..#i#h#e#b...6...1.Y...S.O.L.J",
".F..#p........#j......#..7.3.Z.....S.Q.......I.H",
".F..#n..#j#h#e#c#....5.1.Y.W.R.P...M.K...I.I...G",
".F..#i#g.......4.1...X.U.Q.O.....J.I.I...H.H...G",
".F..#d#a.8.3.1.X.W.T.Q.O.L.K.I.I.H.H.H.H.G.G.G.G",
".F...9.4.0.X.V.R.P.N.M.K.J.I.H.H.H.H.H.G.G.G.G.G"
};
