/* XPM */
static const char *toolbar_wordsedit[] = {
/* width height num_colors chars_per_pixel */
"    24    24      177            2",
/* colors */
".. c #000000",
".# c #002c73",
".a c #002d70",
".b c #002d76",
".c c #002f6e",
".d c #002f6f",
".e c #002f71",
".f c #002f73",
".g c #002f7b",
".h c #00306d",
".i c #00307a",
".j c #00326c",
".k c #003276",
".l c #00336c",
".m c #00336e",
".n c #00336f",
".o c #003371",
".p c #00346b",
".q c #00347e",
".r c #00347f",
".s c #00356a",
".t c #003573",
".u c #003578",
".v c #00366a",
".w c #003769",
".x c #003876",
".y c #003a7c",
".z c #003b7a",
".A c #003b82",
".B c #003b84",
".C c #003c84",
".D c #003f7e",
".E c #003f7f",
".F c #004286",
".G c #004389",
".H c #004489",
".I c #004583",
".J c #004b8a",
".K c #004d88",
".L c #004e8e",
".M c #00538d",
".N c #00548b",
".O c #005591",
".P c #005892",
".Q c #005992",
".R c #005b8f",
".S c #005b91",
".T c #005e94",
".U c #006097",
".V c #006192",
".W c #006194",
".X c #006196",
".Y c #006696",
".Z c #006697",
".0 c #006799",
".1 c #00699a",
".2 c #006b98",
".3 c #006b9a",
".4 c #006c9b",
".5 c #006d9c",
".6 c #006f9a",
".7 c #006f9b",
".8 c #00719d",
".9 c #00729b",
"#. c #00729c",
"## c #00739e",
"#a c #00749e",
"#b c #00759e",
"#c c #00769e",
"#d c #00769f",
"#e c #00779e",
"#f c #00779f",
"#g c #00789f",
"#h c #00799f",
"#i c #777777",
"#j c #787878",
"#k c #797979",
"#l c #7a7a7a",
"#m c #7b7b7b",
"#n c #7c7c7c",
"#o c #7d7d7d",
"#p c #7e7e7e",
"#q c #7f7f7f",
"#r c #808080",
"#s c #818181",
"#t c #828282",
"#u c #838383",
"#v c #848484",
"#w c #858585",
"#x c #868686",
"#y c #878787",
"#z c #888888",
"#A c #8b8b8b",
"#B c #8c8c8c",
"#C c #8d8d8d",
"#D c #8e8e8e",
"#E c #8f8f8f",
"#F c #919191",
"#G c #939393",
"#H c #949494",
"#I c #959595",
"#J c #969696",
"#K c #979797",
"#L c #989898",
"#M c #9b9b9b",
"#N c #9d9d9d",
"#O c #9f9f9f",
"#P c #a0a0a0",
"#Q c #a1a1a1",
"#R c #a3a3a3",
"#S c #a4a4a4",
"#T c #a6a6a6",
"#U c #a8a8a8",
"#V c #a9a9a9",
"#W c #aaaaaa",
"#X c #acacac",
"#Y c #adadad",
"#Z c #aeaeae",
"#0 c #b0b0b0",
"#1 c #b1b1b1",
"#2 c #b2b2b2",
"#3 c #b3b3b3",
"#4 c #b5b5b5",
"#5 c #b6b6b6",
"#6 c #b8b8b8",
"#7 c #bababa",
"#8 c #bbbbbb",
"#9 c #bcbcbc",
"a. c #bdbdbd",
"a# c #bfbfbf",
"aa c #c0c0c0",
"ab c #c1c1c1",
"ac c #c2c2c2",
"ad c #c3c3c3",
"ae c #c4c4c4",
"af c #c5c5c5",
"ag c #c7c7c7",
"ah c #c8c8c8",
"ai c #c9c9c9",
"aj c #cacaca",
"ak c #cbcbcb",
"al c #cccccc",
"am c #cdcdcd",
"an c #cecece",
"ao c #cfcfcf",
"ap c #d2d2d2",
"aq c #d3d3d3",
"ar c #d4d4d4",
"as c #d7d7d7",
"at c #d8d8d8",
"au c #dadada",
"av c #dcdcdc",
"aw c #dddddd",
"ax c #dfdfdf",
"ay c #e0e0e0",
"az c #e1e1e1",
"aA c #e2e2e2",
"aB c #e4e4e4",
"aC c #e6e6e6",
"aD c #e7e7e7",
"aE c #e8e8e8",
"aF c #ebebeb",
"aG c #ececec",
"aH c #ededed",
"aI c #eeeeee",
"aJ c #efefef",
"aK c #f0f0f0",
"aL c #f1f1f1",
"aM c #f2f2f2",
"aN c #f3f3f3",
"aO c #f5f5f5",
"aP c #f6f6f6",
"aQ c #f8f8f8",
"aR c #f9f9f9",
"aS c #fafafa",
"aT c #fbfbfb",
"aU c #fcfcfc",
/* pixels */
"a#a#a#a#a#a#a#a#a#a#a#a#a#a#a#a#a#a#a#a#a#a#a#a#",
"a#a#a#....................................a#a#a#",
"a#a#..aTaTaTaTaSaQaPaNaKaGaDazavatapamaiag..a#a#",
"a#..aTaUaTaTaRaQaPaNaJaFaCazavasapalahaeaaaa..a#",
"a#..aTaT#f#g#g#h#g#g#h#g#g#f#b##.5.1.X.Qa##8..a#",
"a#..aTaTaSaQaOaLaHaEaAawataraoakagaca##9#8#6..a#",
"a#..aTaS#h#g#g#g#g#g#d#a.8.4.0.U.P.L.H.C#5#3..a#",
"a#..aSaQaPaMaHaDayauaqaoajagadaba##9#4#3#0#Y..a#",
"a#..aQaP#f#e#c#b#..7.3.Z.T.O.L.G.B.r.g.b#U#T..a#",
"a#..aPaNaIaEazauaranagada##9#7#4#1#Y#V#T#P#N..a#",
"a#..aMaI.9.6.2.Y.W.S.M.J.F.A.q.i.b.#.a.c#K#H..a#",
"a#..aGaEaAauapalada.#7#4#2#Z#W#S#Q#M#K#G#E#C..a#",
"a#..aBax.V.R.N.K.I.E.y.u.k.f.e.d.h.j.p.s#z#w..a#",
"a#..auaqamaf#9#4#Z#U#S#O#N#L#I#F#D#A#y#v#t#r..a#",
"a#..anah.I.D.z.x.t.o.n.m.l.p.p.s.v.v.w.w#o#m..a#",
"a#..ab#8#2#U#R#M#I#F#B#A#z#x#w#t#r#p#o#m#l#j..a#",
"a#a#..#X#S#N#J#E#A#z#w#t#s#r#q#o#n#m#k#j#i..a#a#",
"a#a#a#........#y#u#r......................a#a#a#",
"a#a#a#a#a#a#..#s#p#o..a#a#a#a#a#a#a#a#a#a#a#a#a#",
"a#a#a#a#....#r#n#m..a#a#a#a#a#a#a#a#a#a#a#a#a#a#",
"a#a#a#..#u#q#n#l..a#a#a#a#a#a#a#a#a#a#a#a#a#a#a#",
"a#a#a#..........a#a#a#a#a#a#a#a#a#a#a#a#a#a#a#a#",
"a#a#a#a#a#a#a#a#a#a#a#a#a#a#a#a#a#a#a#a#a#a#a#a#",
"a#a#a#a#a#a#a#a#a#a#a#a#a#a#a#a#a#a#a#a#a#a#a#a#"
};
