/* XPM */
static const char *toolbar_open[] = {
/* width height num_colors chars_per_pixel */
"    24    24      180            2",
/* colors */
".. c #000000",
".# c #766f00",
".a c #777000",
".b c #787100",
".c c #797100",
".d c #797200",
".e c #7b7400",
".f c #7c7400",
".g c #7d7500",
".h c #7e7600",
".i c #7f7700",
".j c #807800",
".k c #817900",
".l c #827a00",
".m c #837b00",
".n c #867e00",
".o c #877f00",
".p c #888000",
".q c #8a8100",
".r c #8a8200",
".s c #8d8400",
".t c #8e8500",
".u c #8e8600",
".v c #8f8600",
".w c #918800",
".x c #938a00",
".y c #948b00",
".z c #958b00",
".A c #958c00",
".B c #958d00",
".C c #988e00",
".D c #9a9000",
".E c #9a9100",
".F c #9c9300",
".G c #9c9400",
".H c #9e9300",
".I c #a09600",
".J c #a09700",
".K c #a19700",
".L c #a19800",
".M c #a29800",
".N c #a39b00",
".O c #a59c00",
".P c #a69b00",
".Q c #a79e00",
".R c #a89f00",
".S c #a99f00",
".T c #aaa000",
".U c #aaa100",
".V c #aaa200",
".W c #aba100",
".X c #ada400",
".Y c #aea600",
".Z c #afa400",
".0 c #afa500",
".1 c #b0a800",
".2 c #b2a900",
".3 c #b2aa00",
".4 c #b3a800",
".5 c #b3aa00",
".6 c #b4ad00",
".7 c #b6ac00",
".8 c #b7af00",
".9 c #b8ac00",
"#. c #b8ad00",
"## c #b8ae00",
"#a c #b9ad00",
"#b c #b9af00",
"#c c #baae00",
"#d c #baaf00",
"#e c #bab200",
"#f c #bbaf00",
"#g c #bbb000",
"#h c #bbb300",
"#i c #bcb000",
"#j c #bcb100",
"#k c #bcb300",
"#l c #bcb400",
"#m c #bdb200",
"#n c #beb300",
"#o c #beb400",
"#p c #beb700",
"#q c #bfb500",
"#r c #bfb700",
"#s c #bfbfbf",
"#t c #c0b500",
"#u c #c0b800",
"#v c #c1b600",
"#w c #c1b800",
"#x c #c1b900",
"#y c #c2b800",
"#z c #c3b900",
"#A c #c3ba00",
"#B c #c4ba00",
"#C c #c4bc00",
"#D c #c4be00",
"#E c #c5bb00",
"#F c #c5bc00",
"#G c #c6bc00",
"#H c #c6bd00",
"#I c #c6bf00",
"#J c #c6c000",
"#K c #c7be00",
"#L c #c7bf00",
"#M c #c8bf00",
"#N c #c8c200",
"#O c #c9c000",
"#P c #cac100",
"#Q c #cbc200",
"#R c #cbc400",
"#S c #ccc500",
"#T c #cdc600",
"#U c #cdc700",
"#V c #cec500",
"#W c #cec600",
"#X c #cec700",
"#Y c #cec800",
"#Z c #cec900",
"#0 c #cfc700",
"#1 c #d0c800",
"#2 c #d0c900",
"#3 c #d2cb00",
"#4 c #d2cd00",
"#5 c #d3cb00",
"#6 c #d4cd00",
"#7 c #d4ce00",
"#8 c #d5ce00",
"#9 c #d5cf00",
"a. c #d5d000",
"a# c #d6cf00",
"aa c #d6d000",
"ab c #d6d100",
"ac c #d8d100",
"ad c #d8d200",
"ae c #dad500",
"af c #dbd500",
"ag c #dbd600",
"ah c #dcd600",
"ai c #ddd700",
"aj c #ddd800",
"ak c #ddd900",
"al c #ded800",
"am c #deda00",
"an c #e0da00",
"ao c #e0dc00",
"ap c #e1dc00",
"aq c #e1dd00",
"ar c #e2dd00",
"as c #e2de00",
"at c #e3df00",
"au c #e4df00",
"av c #e4e000",
"aw c #e5e100",
"ax c #e5e200",
"ay c #e6e200",
"az c #e6e300",
"aA c #e7e400",
"aB c #e9e500",
"aC c #eae700",
"aD c #ebe800",
"aE c #ece800",
"aF c #ece900",
"aG c #edea00",
"aH c #edeb00",
"aI c #efeb00",
"aJ c #efed00",
"aK c #f0ee00",
"aL c #f1ee00",
"aM c #f1ef00",
"aN c #f2ef00",
"aO c #f3f000",
"aP c #f3f100",
"aQ c #f4f200",
"aR c #f4f300",
"aS c #f5f400",
"aT c #f7f500",
"aU c #f7f600",
"aV c #f9f800",
"aW c #faf900",
"aX c #fbfb00",
/* pixels */
"#s#s#s#s#s#s#s#s#s#s#s#s#s#s#s#s#s#s#s#s#s#s#s#s",
"#s#s#s#s#s#s#s#s#s#s#s#s#s#s#s#s#s#s#s#s#s#s#s#s",
"#s#s#s#s#s#s#s#s#s#s#s#s#s#s#s#s#s#s#s#s#s#s#s#s",
"#s#s#s#s............#s#s#s#s#s#s#s#s#s#s#s#s#s#s",
"#s#s#s..aPaKaGaBawar..#s#s#s#s#s#s#s#s#s#s#s#s#s",
"#s#s..aMaGaBavanahac#6................#s#s#s#s#s",
"#s..aKaFayapafaa#3#W#Q#M#G#z#v#n#j#g#d..#s#s#s#s",
"#s..aCavalad#5#V#O#H#E#y#t#o#j#f#c#a#...#s#s#s#s",
"#s..ataiaa#2#Q#K#B#v#q#n#m#i#c#a#..9.9..#s#s#s#s",
"#s..ah#9#0................................#s#s#s",
"#s..#8#0#O..aXaWaVaTaSaOaHazamaa#R#w#b.4.Z..#s#s",
"#s..#0#O..aVaUaSaQaLaHaBauae#4#N#u.7.0.T.P..#s#s",
"#s..#P#E..aRaNaJaEaAasakab#U#D#l.5.W.O.J.H..#s#s",
"#s..#F#y..aIaCaxaqaga.#Z#J#p.6.X.O.I.E.C.A..#s#s",
"#s..#z..aDayaoae#7#X#I#r.8.Y.Q.J.D.z.w.t..#s#s#s",
"#s..#y..awakaa#Y#L#u.8.1.R.L.E.y.u.r.p.n..#s#s#s",
"#s..#y..aj#7#R#C#h.3.V.N.F.A.v.q.n.m.k.j..#s#s#s",
"#s....ana##S#A#e.1.S.K.E.x.s.o.m.j.g.f..#s#s#s#s",
"#s....ae#1#C#k.2.U.M.E.x.s.o.l.h.e.d.b..#s#s#s#s",
"#s....ac#T#x##.X.O.G.B.u.p.m.i.e.c.a.#..#s#s#s#s",
"#s#s..................................#s#s#s#s#s",
"#s#s#s#s#s#s#s#s#s#s#s#s#s#s#s#s#s#s#s#s#s#s#s#s",
"#s#s#s#s#s#s#s#s#s#s#s#s#s#s#s#s#s#s#s#s#s#s#s#s",
"#s#s#s#s#s#s#s#s#s#s#s#s#s#s#s#s#s#s#s#s#s#s#s#s"
};
