/* XPM */
static const char *toolbar_logedit[] = {
/* width height num_colors chars_per_pixel */
"    24    24       94            2",
/* colors */
".. c #ffffff",
".# c #ffff00",
".a c #ff0000",
".b c #fefefe",
".c c #fdfdfd",
".d c #fcfcfc",
".e c #fbfbfb",
".f c #fafafa",
".g c #f9f9f9",
".h c #f8f8f8",
".i c #f7f7f7",
".j c #f6f6f6",
".k c #f5f5f5",
".l c #f4f4f4",
".m c #f3f3f3",
".n c #f2f2f2",
".o c #f1f1f1",
".p c #f0f0f0",
".q c #efefef",
".r c #eeeeee",
".s c #ededed",
".t c #ececec",
".u c #ebebeb",
".v c #eaeaea",
".w c #e9e9e9",
".x c #e8e8e8",
".y c #e7e7e7",
".z c #e6e6e6",
".A c #e5e5e5",
".B c #e4e4e4",
".C c #e3e3e3",
".D c #e2e2e2",
".E c #e1e1e1",
".F c #dfdfdf",
".G c #dedede",
".H c #dddddd",
".I c #dcdcdc",
".J c #dbdbdb",
".K c #dadada",
".L c #d9d9d9",
".M c #d8d8d8",
".N c #d7d7d7",
".O c #d6d6d6",
".P c #d5d5d5",
".Q c #d4d4d4",
".R c #d3d3d3",
".S c #d2d2d2",
".T c #d1d1d1",
".U c #d0d0d0",
".V c #cfcfcf",
".W c #cdcdcd",
".X c #cccccc",
".Y c #cacaca",
".Z c #c9c9c9",
".0 c #c8c8c8",
".1 c #c7c7c7",
".2 c #c5c5c5",
".3 c #c4c4c4",
".4 c #c3c3c3",
".5 c #c2c2c2",
".6 c #c1c1c1",
".7 c #c0c0c0",
".8 c #bfbfbf",
".9 c #bebebe",
"#. c #bdbdbd",
"## c #bcbcbc",
"#a c #7f7f00",
"#b c #7f007f",
"#c c #0000d3",
"#d c #0000d1",
"#e c #0000cd",
"#f c #0000cc",
"#g c #0000c9",
"#h c #0000c6",
"#i c #0000c5",
"#j c #0000c0",
"#k c #0000bf",
"#l c #0000bc",
"#m c #0000b4",
"#n c #0000b2",
"#o c #0000a6",
"#p c #00009b",
"#q c #000098",
"#r c #000092",
"#s c #000090",
"#t c #00008f",
"#u c #00008a",
"#v c #000089",
"#w c #000083",
"#x c #000082",
"#y c #000081",
"#z c #000080",
"#A c #00007f",
"#B c #000000",
/* pixels */
".8.8.8.8.8.8.8.8.8.8.8.8.8.8.8.8.8.8.8.8.8.8.8.8",
".8#B#B#B#B#B#B#B#B#B#B#B#B#B#B#B#B#B#B#B#B#B#B#B",
".8#B.##a.##c#d..#g#j#m..#p#r#u....#x..#z......#A",
".8#B#a.#.a#d#e..#k#m..#p..#v..#x#y#z..#A..#A#A#A",
".8#B.##a.a#f#h..#n#o..#s..#w..#z..#A..#A..#A#A#A",
".8#B#b#b#b#i#l....#q#t..#x#z#A....#A..#A......#A",
".8#B#B#B#B#B#B#B#B#B#B#B#B#B#B#B#B#B#B#B#B#B#B#B",
".8#B...................................b.d.g.l.r",
".8#B.................................b.c.e.j.q.x",
".8#B....#B......#B........#B......#B.b.c.g#B#B.D",
".8#B..........#B..#B....#B......#B..#B.d#B.n.x.H",
".8#B....#B....#B........#B......#B...d.e#B#B#B.K",
".8#B....#B..#B#B#B......#B....#B#B#B.d.h#B.u.D#B",
".8#B....#B....#B........#B.....b#B.d.g.k#B.y.H#B",
".8#B....#B....#B..........#B.b.b#B.g.j.p.w#B#B.T",
".8#B.....................b.b.c.e.h.k.p.u.D.K.Q.X",
".8#B...................b.b.d.f.i.n.r.x.E.J.R.X.0",
".8#B...............b.c.d#B#B.k.o#B#B.F.M.S#B.0.3",
".8#B.b.c.c.b.c.b.d.d.e#B.i.m.s#B.E.J#B.U#B#B#B.4",
".8#B.e.e.e.e.e.e.f.h.i.m#B.v.B#B#B#B#B.0.2#B.6.5",
".8#B.i.i.j.k.j.k.l.n.q.u.z#B.L#B.W.Z.2.5.6#B.7.6",
".8#B.o.p.r.q.r.s.t.v.z#B#B.P.V.Z#B#B#B.8.9#B.8.7",
".8#B.y.z.A.A.B.C.D.E.I.N.S.X.1.5.7.9#.#.#..9.8.7",
".8#B.G.I.J.J.K.L.M.O.R.V.Y.2.6.9#.########.9.8.6"
};
