/* XPM */
static const char *toolbar_objedit[] = {
/* width height num_colors chars_per_pixel */
"    24    24      176            2",
/* colors */
".. c #000000",
".# c #7f0000",
".a c #8b8200",
".b c #8c8200",
".c c #8c8300",
".d c #8d8300",
".e c #8d8400",
".f c #8e8500",
".g c #8f8500",
".h c #8f8600",
".i c #908600",
".j c #908700",
".k c #918800",
".l c #928800",
".m c #928900",
".n c #938900",
".o c #938a00",
".p c #958b00",
".q c #968c00",
".r c #978d00",
".s c #978e00",
".t c #988e00",
".u c #9a9000",
".v c #9b9100",
".w c #9c9200",
".x c #9c9300",
".y c #9d9300",
".z c #9e9300",
".A c #9f9400",
".B c #a09600",
".C c #a09700",
".D c #a29700",
".E c #a29800",
".F c #a29b00",
".G c #a39800",
".H c #a49900",
".I c #a49a00",
".J c #a69b00",
".K c #a69c00",
".L c #a79d00",
".M c #a89e00",
".N c #a99e00",
".O c #a99f00",
".P c #a9a200",
".Q c #a9a400",
".R c #aa9f00",
".S c #aaa000",
".T c #aba000",
".U c #aba100",
".V c #aca100",
".W c #ada200",
".X c #ada700",
".Y c #aea300",
".Z c #afa400",
".0 c #b0a500",
".1 c #b0a600",
".2 c #b1a600",
".3 c #b1a700",
".4 c #b2a700",
".5 c #b2a800",
".6 c #b2ac00",
".7 c #b3a800",
".8 c #b4a900",
".9 c #b4ae00",
"#. c #b5ac00",
"## c #b5af00",
"#a c #b7ac00",
"#b c #b7ad00",
"#c c #b8ad00",
"#d c #b8ae00",
"#e c #b8b400",
"#f c #b9af00",
"#g c #bab500",
"#h c #bbb600",
"#i c #bcb200",
"#j c #bcb300",
"#k c #bcb700",
"#l c #bdb800",
"#m c #beb400",
"#n c #bfb500",
"#o c #bfbfbf",
"#p c #c0b600",
"#q c #c0ba00",
"#r c #c0bc00",
"#s c #c2b800",
"#t c #c2bd00",
"#u c #c3b900",
"#v c #c3be00",
"#w c #c4ba00",
"#x c #c4bb00",
"#y c #c5bc00",
"#z c #c5c100",
"#A c #c7bf00",
"#B c #c7c300",
"#C c #c8c300",
"#D c #c8c400",
"#E c #c9c000",
"#F c #c9c100",
"#G c #c9c500",
"#H c #cac100",
"#I c #cbc300",
"#J c #cbc600",
"#K c #cbc700",
"#L c #ccc400",
"#M c #ccc800",
"#N c #cd0035",
"#O c #cec600",
"#P c #cfcb00",
"#Q c #d0c800",
"#R c #d0cc00",
"#S c #d1c900",
"#T c #d1cd00",
"#U c #d1ce00",
"#V c #d2ca00",
"#W c #d2cb00",
"#X c #d2cf00",
"#Y c #d3cf00",
"#Z c #d3d000",
"#0 c #d4cd00",
"#1 c #d6d200",
"#2 c #d7d100",
"#3 c #d7d300",
"#4 c #d7d400",
"#5 c #d8d200",
"#6 c #dad400",
"#7 c #dad800",
"#8 c #dcd600",
"#9 c #dcd900",
"a. c #dcda00",
"a# c #ddda00",
"aa c #dedb00",
"ab c #dfd900",
"ac c #dfda00",
"ad c #dfdc00",
"ae c #dfdd00",
"af c #e0db00",
"ag c #e1dc00",
"ah c #e1df00",
"ai c #e3de00",
"aj c #e3e100",
"ak c #e3e200",
"al c #e6e200",
"am c #e6e400",
"an c #e6e500",
"ao c #e7e300",
"ap c #e8e600",
"aq c #e9e500",
"ar c #e9e600",
"as c #eae700",
"at c #eae800",
"au c #ebe900",
"av c #ebeb00",
"aw c #ece900",
"ax c #edeb00",
"ay c #edec00",
"az c #eeed00",
"aA c #efed00",
"aB c #f0ef00",
"aC c #f1ef00",
"aD c #f1f000",
"aE c #f2f000",
"aF c #f3f100",
"aG c #f4f300",
"aH c #f5f400",
"aI c #f6f400",
"aJ c #f6f500",
"aK c #f7f500",
"aL c #f8f800",
"aM c #f9f800",
"aN c #faf900",
"aO c #fbfa00",
"aP c #fcfc00",
"aQ c #fdfc00",
"aR c #fefe00",
"aS c #ff0000",
"aT c #ffff00",
/* pixels */
"#o#o#o#o#o#o#o#o#o#o#o#o#o#o#o#o#o#o#o#o#o#o#o#o",
"#o#o#o#o#o#o#o#o#o#o#o#o#o#o#o#o#o#o#o#o#o#o#o#o",
"#o#o#o#o................................#o#o#o#o",
"#o#o#o..aLaJaGaDaBaB...#.#..azavanae#4#R..#o#o#o",
"#o#o....aHaDayatapap...#.#..arak#9#Z#J#r....#o#o",
"#o#o....aBauamahaaa#...#.#..ad#7#Y#C#l.9....#o#o",
"#o#o..aT..aja.#3#X#T...#.#..#4#U#G#l.6..#n..#o#o",
"#o#o..aT..#9#Z#M#B#z...#.#..#P#G#q.9.P..#c..#o#o",
"#o#o..aR..#1#K#t#k#g...#.#..#D#v#e.X.F...2..#o#o",
"#o#o..aQaP..#z#h................##.Q...4.U..#o#o",
"#o#o..aOaNaK......aSaSaSaSaSaS.......4.T.I..#o#o",
"#o#o..aMaKaFaAas..aS#N#N#N#N#N..#a.2.R.H.z..#o#o",
"#o#o..aIaEaxaqai.................0.R.H.y.r..#o#o",
"#o#o..aCawaoaf#6#0#O...#.#...8.Z.N.G.x.s.m..#o#o",
"#o#o..awalab#2#V#I#y...#.#...W.M.D.w.q.l.g..#o#o",
"#o#o..alac#2#Q#F#w#m#f.....S.J.B.v.q.k.f.e..#o#o",
"#o#o..ag#5#S#A#s#j#c.7.Y.O.H.A.u.p.k.f.e.c..#o#o",
"#o#o..#8#W#H#u#i#..3.U.L.E.y.t.o.j.f.d.c.a..#o#o",
"#o#o..#2#L#x#j#b.1.T.K.C.v.r.n.i.f.d.c.b.a..#o#o",
"#o#o#o..#E#p#d.5.V.J.B.u.q.m.h.e.d.c.a.a..#o#o#o",
"#o#o#o#o................................#o#o#o#o",
"#o#o#o#o#o#o#o#o#o#o#o#o#o#o#o#o#o#o#o#o#o#o#o#o",
"#o#o#o#o#o#o#o#o#o#o#o#o#o#o#o#o#o#o#o#o#o#o#o#o",
"#o#o#o#o#o#o#o#o#o#o#o#o#o#o#o#o#o#o#o#o#o#o#o#o"
};
