/* XPM */
static const char *toolbar_close[] = {
/* width height num_colors chars_per_pixel */
"    24    24      171            2",
/* colors */
".. c #000000",
".# c #a20020",
".a c #a4001f",
".b c #a8001e",
".c c #aa001e",
".d c #ac001d",
".e c #af001b",
".f c #b0001b",
".g c #b0001c",
".h c #b2001b",
".i c #b5001a",
".j c #b5051f",
".k c #b50923",
".l c #b60019",
".m c #b6001a",
".n c #b80019",
".o c #b9021a",
".p c #b90d24",
".q c #ba0018",
".r c #ba0c23",
".s c #bb0018",
".t c #bb0d24",
".u c #bc0017",
".v c #bd021a",
".w c #be0016",
".x c #be0117",
".y c #be0a20",
".z c #bf0e24",
".A c #bfbfbf",
".B c #c0051b",
".C c #c0061b",
".D c #c10015",
".E c #c10016",
".F c #c10e24",
".G c #c30f25",
".H c #c40014",
".I c #c40318",
".J c #c50e20",
".K c #c51226",
".L c #c70214",
".M c #c80012",
".N c #c80a1e",
".O c #c81426",
".P c #c90013",
".Q c #c90113",
".R c #c91022",
".S c #c91326",
".T c #cb0215",
".U c #cc0213",
".V c #cc091a",
".W c #cc0b1e",
".X c #cd0516",
".Y c #cd1122",
".Z c #cd1325",
".0 c #ce0011",
".1 c #ce0616",
".2 c #cf1627",
".3 c #d00314",
".4 c #d01627",
".5 c #d10110",
".6 c #d10211",
".7 c #d10c1d",
".8 c #d21829",
".9 c #d3101f",
"#. c #d31220",
"## c #d31625",
"#a c #d40a19",
"#b c #d50210",
"#c c #d51a28",
"#d c #d71826",
"#e c #d80411",
"#f c #d80412",
"#g c #d90210",
"#h c #d90814",
"#i c #d91b28",
"#j c #da0c19",
"#k c #da131e",
"#l c #da1926",
"#m c #db0411",
"#n c #dc0c19",
"#o c #dc101b",
"#p c #dc1f2b",
"#q c #dd111d",
"#r c #de0712",
"#s c #de1824",
"#t c #df0915",
"#u c #df1924",
"#v c #df1f29",
"#w c #df212c",
"#x c #e10b15",
"#y c #e11823",
"#z c #e11f29",
"#A c #e2222b",
"#B c #e30a13",
"#C c #e40d15",
"#D c #e4111b",
"#E c #e5222b",
"#F c #e5242c",
"#G c #e6121a",
"#H c #e6252d",
"#I c #e7040d",
"#J c #e70f17",
"#K c #e72830",
"#L c #e81820",
"#M c #e81f28",
"#N c #e9171e",
"#O c #ea1f26",
"#P c #ea2a31",
"#Q c #ec121a",
"#R c #ec151c",
"#S c #ec1e25",
"#T c #ec2830",
"#U c #ec2930",
"#V c #ee0c14",
"#W c #ee2127",
"#X c #ee262d",
"#Y c #ef171c",
"#Z c #f0060b",
"#0 c #f01d23",
"#1 c #f0272c",
"#2 c #f02d33",
"#3 c #f11d22",
"#4 c #f21a1d",
"#5 c #f2252a",
"#6 c #f32529",
"#7 c #f32d32",
"#8 c #f43135",
"#9 c #f43337",
"a. c #f52023",
"a# c #f52327",
"aa c #f52e32",
"ab c #f53639",
"ac c #f62529",
"ad c #f63638",
"ae c #f6363a",
"af c #f6383b",
"ag c #f72b2e",
"ah c #f7373a",
"ai c #f82c2d",
"aj c #f83437",
"ak c #f9282b",
"al c #f93437",
"am c #f93b3d",
"an c #fa2d2f",
"ao c #fa3133",
"ap c #fa3234",
"aq c #fb3637",
"ar c #fb393b",
"as c #fb3b3d",
"at c #fb4041",
"au c #fc3334",
"av c #fc393b",
"aw c #fc3c3d",
"ax c #fc3f41",
"ay c #fc4243",
"az c #fd3f3f",
"aA c #fd4343",
"aB c #fd4445",
"aC c #fd4546",
"aD c #fd4646",
"aE c #fd4647",
"aF c #fd4748",
"aG c #fd4849",
"aH c #fe4142",
"aI c #fe4243",
"aJ c #fe4445",
"aK c #fe4546",
"aL c #fe4647",
"aM c #fe4748",
"aN c #fe4848",
"aO c #ffffff",
/* pixels */
".A.A.A.A.A.A.A.A.A.A.A.A.A.A.A.A.A.A.A.A.A.A.A.A",
".A.A.A.A.A...A.A.A.A.A.A.A.A.A.A.A.A...A.A.A.A.A",
".A.A.A.A..aH...A.A.A.A.A.A.A.A.A.A..#Z...A.A.A.A",
".A.A.A..aBaOaI...A.A.A.A.A.A.A.A..#VaO#I...A.A.A",
".A.A..aFaOaLaKaC...A.A.A.A.A.A..#RaO#t#m#g...A.A",
".A..aFaOaMaMaMaFaF...A.A.A.A..#WaO#o#a.1.T.U...A",
".A.A..aFaMaNaMaGaGaG...A.A..#7aO#u.9.N.C.v...A.A",
".A.A.A..aGaFaMaFaFaFaE....aeaO#E#d.R.y.j...A.A.A",
".A.A.A.A..aFaEaEaEaCaBatam#9#U#v.4.F.k...A.A.A.A",
".A.A.A.A.A..aDaJaAayaxasad#2#H#i.S.p...A.A.A.A.A",
".A.A.A.A.A.A..aHazawaralaa#X#z##.G...A.A.A.A.A.A",
".A.A.A.A.A.A.A..avaqaoag#5#O#s.Y...A.A.A.A.A.A.A",
".A.A.A.A.A.A.A..auanaka##0#L#k.W...A.A.A.A.A.A.A",
".A.A.A.A.A.A..apaiaca.#4#R#D#j.V.B...A.A.A.A.A.A",
".A.A.A.A.A..ajaO#6#3#Y#Q#J#x#h.X.I.o...A.A.A.A.A",
".A.A.A.A..ahaO#1#S#N#G#C#B#r#f.3.L.x.n...A.A.A.A",
".A.A.A..afaO#T#M#y#q#n....#e#b.6.Q.D.s.l...A.A.A",
".A.A..abaO#P#A#l#..7...A.A...5.0.M.E.q.i.h...A.A",
".A..#8aO#K#w#c.Z.J...A.A.A.A...P.H.u.m.f.d.c...A",
".A.A..#F#p.8.O.z...A.A.A.A.A.A...w.l.e.b.a...A.A",
".A.A.A...2.K.t...A.A.A.A.A.A.A.A...g.b.#...A.A.A",
".A.A.A.A...r...A.A.A.A.A.A.A.A.A.A...#...A.A.A.A",
".A.A.A.A.A...A.A.A.A.A.A.A.A.A.A.A.A...A.A.A.A.A",
".A.A.A.A.A.A.A.A.A.A.A.A.A.A.A.A.A.A.A.A.A.A.A.A"
};

