/* XPM */
static char * agistudio_xpm[] = {
"24 24 10 1",
" 	c None",
".	c #7F0000",
"+	c #00FFFF",
"@	c #999999",
"#	c #4C4C4C",
"$	c #FFFF00",
"%	c #000000",
"&	c #FF0000",
"*	c #7F007F",
"=	c #191919",
"                        ",
"     ..                 ",
"     ....               ",
"     ++..@              ",
"     ++++++             ",
"     ++++++++           ",
"     ######$$           ",
"     ####$$$$$$         ",
"     ####$$$$@@         ",
"     ##$$$%%%%          ",
"      @$$$%$$$%         ",
"       &&&%$$%*%        ",
"     &&&&&%$%&**%       ",
"     &&&&&&%&&&**%      ",
"     &&$$&&&%&&&**%     ",
"     &&$$&&& %&&&**%    ",
"     &&$$&&&  %&&&**=   ",
"     &&$$&&&   %&&&*%   ",
"     &&$$$$&    =&&&%   ",
"     &&..$$$$    %%%    ",
"     ......$$           ",
"     ++++++@@           ",
"     ++++++@            ",
"                        "};
