/* XPM */
static const char *forward[] = {
/* columns rows colors chars-per-pixel */
"16 16 5 1",
"  c black",
". c #808080808080",
"X c #C0C0C0C0C0C0",
"o c gray100",
"O c None",
/* pixels */
"OOOOOOOOOOOOOOOO",
"OOOOOOOOOOOOOOOO",
"OOOOOOOOO OOOOOO",
"OOOOOOOOO  OOOOO",
"OOOOOOOOO o OOOO",
"OO        oo OOO",
"OO oooooooXoo OO",
"OO XXXXXXXXXoo O",
"OO XXXXXXXXXo OO",
"OO        Xo .OO",
"OO....... o .OOO",
"OOOOOOOO.  .OOOO",
"OOOOOOOO. .OOOOO",
"OOOOOOOO..OOOOOO",
"OOOOOOOO.OOOOOOO",
"OOOOOOOOOOOOOOOO"
};
