/* XPM */
static const char *toolbar_viewedit[] = {
/* columns rows colors chars-per-pixel */
"24 24 34 1",
"  c black",
". c #7F7F00000000",
"X c gray30",
"o c cyan",
"O c #808000000000",
"+ c #CFCF00003333",
"@ c #CDCD00003434",
"# c #CDCD00003535",
"$ c #CECE00003434",
"% c #D2D200002F2F",
"& c #D7D700002B2B",
"* c #D5D500002C2C",
"= c #DADA00002727",
"- c #DFDF00002121",
"; c #DFDF00002222",
": c #D0D000003131",
"> c #D0D000003232",
", c #E1E100001F1F",
"< c #E5E500001C1C",
"1 c #EAEA00001616",
"2 c #EDED00001313",
"3 c #EFEF00001010",
"4 c #F3F300000D0D",
"5 c #F7F700000808",
"6 c #FAFA00000505",
"7 c #FBFB00000404",
"8 c #FEFE00000101",
"9 c #F8F800000808",
"0 c #F0F000001010",
"q c #FFFF50505050",
"w c #FFFFAEAE0000",
"e c yellow",
"r c gray59",
"t c None",
/* pixels */
"tttttttttttttttttttttttt",
"ttttt..ttttttttttttttttt",
"ttttt....ttttttttttttttt",
"tttttoo..rtttttttttttttt",
"tttttoooooottttttttttttt",
"tttttoooooooottttttttttt",
"tttttXXXXXXeettttttttttt",
"tttttXXXXeeeeeettttttttt",
"tttttXXXXeeeerrttttttttt",
"tttttXXeee    tttttttttt",
"ttttttreee www ttttttttt",
"tttttttqqq ww 7 tttttttt",
"tttttqqqqq w 753 ttttttt",
"tttttqqqqqq 8741- tttttt",
"tttttqqeeqqr 53<=% ttttt",
"tttttqqeeqqrt 3,&># tttt",
"tttttqqeeqqrtt -*>## ttt",
"tttttqqeeqqrttt *+## ttt",
"tttttqqeeeertttt >+# ttt",
"tttttqqOOeeeetttt   tttt",
"tttttOOOOOOeettttttttttt",
"tttttoooooorrttttttttttt",
"tttttoooooortttttttttttt",
"tttttttttttttttttttttttt"
};
