/* XPM */
static const char *toolbar_picedit[] = {
/* columns rows colors chars-per-pixel */
"24 24 172 2",
"   c black",
".  c #000065650000",
"X  c #000066660000",
"o  c #000067670000",
"O  c #000068680000",
"+  c #000069690000",
"@  c #00006A6A0000",
"#  c #00006B6B0000",
"$  c #00006C6C0000",
"%  c #00006D6D0000",
"&  c #00006E6E0000",
"*  c #00006F6F0000",
"=  c #000070700000",
"-  c #000071710000",
";  c #5A5A00000000",
":  c #5B5B00000000",
">  c #5C5C00000000",
",  c #5D5D00000000",
"<  c #5E5E00000000",
"1  c #5F5F00000000",
"2  c #616100000000",
"3  c #626200000000",
"4  c #646400000000",
"5  c #00000000ACAC",
"6  c #00000000ADAD",
"7  c #00000000AEAE",
"8  c #00000000AFAF",
"9  c #00000000B1B1",
"0  c #00000000B2B2",
"q  c #00000000B4B4",
"w  c #00000000B5B5",
"e  c #00000000B7B7",
"r  c #00000000B8B8",
"t  c #00000000BABA",
"y  c #00000000BCBC",
"u  c #00000000BEBE",
"i  c #00000000BFBF",
"p  c #00000000C1C1",
"a  c #00000000C2C2",
"s  c #00000000C3C3",
"d  c #00000000C4C4",
"f  c #00000000C6C6",
"g  c #00000000C7C7",
"h  c #00000000C8C8",
"j  c #00000000CACA",
"k  c #00000000CBCB",
"l  c #00000000CCCC",
"z  c #00000000CECE",
"x  c #00000000D0D0",
"c  c #00000000D2D2",
"v  c #00000000D4D4",
"b  c #00000000D5D5",
"n  c #00000000D6D6",
"m  c #00000000D8D8",
"M  c #00000000DADA",
"N  c #00000000DBDB",
"B  c #00000000DCDC",
"V  c #00000000DEDE",
"C  c #00000000E0E0",
"Z  c #00000000E1E1",
"A  c #00000000E2E2",
"S  c #00000000E3E3",
"D  c #00000000E5E5",
"F  c #00000000E7E7",
"G  c #00000000E9E9",
"H  c #00000000EAEA",
"J  c #00000000EBEB",
"K  c #00000000ECEC",
"L  c #00000000EDED",
"P  c #00000000EFEF",
"I  c #0000ACAC0000",
"U  c #0000ADAD0000",
"Y  c #0000AFAF0000",
"T  c #0000B0B00000",
"R  c #0000B1B10000",
"E  c #0000B2B20000",
"W  c #0000B3B30000",
"Q  c #0000B4B40000",
"!  c #0000B5B50000",
"~  c #0000B6B60000",
"^  c #0000B7B70000",
"/  c #0000B9B90000",
"(  c #0000BBBB0000",
")  c #0000BCBC0000",
"_  c #0000BEBE0000",
"`  c #0000BFBF0000",
"'  c #0000C1C10000",
"]  c #0000C2C20000",
"[  c #0000C3C30000",
"{  c #0000C5C50000",
"}  c #0000C7C70000",
"|  c #0000C8C80000",
" . c #0000C9C90000",
".. c #0000CACA0000",
"X. c #0000CBCB0000",
"o. c #0000CCCC0000",
"O. c #0000CDCD0000",
"+. c #0000CECE0000",
"@. c #0000CFCF0000",
"#. c #0000D0D00000",
"$. c #0000D1D10000",
"%. c #0000D2D20000",
"&. c #0000D3D30000",
"*. c #0000D5D50000",
"=. c #0000D6D60000",
"-. c #0000D7D70000",
";. c #0000D8D80000",
":. c #0000D9D90000",
">. c #0000DADA0000",
",. c #0000DBDB0000",
"<. c #0000DCDC0000",
"1. c #0000DDDD0000",
"2. c #0000DEDE0000",
"3. c #0000DFDF0000",
"4. c #0000E0E00000",
"5. c #0000E1E10000",
"6. c #0000E2E20000",
"7. c #0000E3E30000",
"8. c #0000E4E40000",
"9. c #0000E5E50000",
"0. c #0000E6E60000",
"q. c #0000E7E70000",
"w. c #0000E8E80000",
"e. c #0000E9E90000",
"r. c #0000EAEA0000",
"t. c #0000EBEB0000",
"y. c #0000ECEC0000",
"u. c #0000EDED0000",
"i. c #0000EEEE0000",
"p. c #0000F0F00000",
"a. c #0000F2F20000",
"s. c #0000F4F40000",
"d. c #0000D2D2D2D2",
"f. c #0000D4D4D4D4",
"g. c #0000D7D7D7D7",
"h. c #0000DADADADA",
"j. c #0000DCDCDCDC",
"k. c #0000DDDDDDDD",
"l. c #0000DFDFDFDF",
"z. c #0000E0E0E0E0",
"x. c #0000E1E1E1E1",
"c. c #0000E2E2E2E2",
"v. c #0000E3E3E3E3",
"b. c #0000E4E4E4E4",
"n. c #0000E5E5E5E5",
"m. c #0000E6E6E6E6",
"M. c #0000E7E7E7E7",
"N. c #0000E8E8E8E8",
"B. c #0000E9E9E9E9",
"V. c #0000EAEAEAEA",
"C. c #0000EBEBEBEB",
"Z. c #0000ECECECEC",
"A. c #0000EDEDEDED",
"S. c #0000EEEEEEEE",
"D. c #0000EFEFEFEF",
"F. c #0000F0F0F0F0",
"G. c #0000F1F1F1F1",
"H. c #0000F2F2F2F2",
"J. c #0000F3F3F3F3",
"K. c #0000F4F4F4F4",
"L. c #0000F5F5F5F5",
"P. c #0000F7F7F7F7",
"I. c #0000F8F8F8F8",
"U. c #F5F5F5F50000",
"Y. c #F6F6F6F60000",
"T. c #F7F7F7F70000",
"R. c #F8F8F8F80000",
"E. c #F9F9F9F90000",
"W. c #FAFAFAFA0000",
"Q. c #FBFBFBFB0000",
"!. c #FCFCFCFC0000",
"~. c gray75",
/* pixels */
"~.~.~.~.~.~.~.~.~.~.~.~.~.~.~.~.~.~.~.~.~.~.~.~.",
"~.~.~.~.~.~.~.~.~.~.~.~.~.~.~.~.~.~.~.~.~.~.~.~.",
"~.                                            ~.",
"~.  !.Q.Q.Q.Q.I.I.K.K.K.G.G.S.Z.V.V.V.n.n.z.  ~.",
"~.  Q.T.Q.T.Q.I.K.K.G.G.S.S.V.V.V.n.n.- - $   ~.",
"~.  Q.Q.T.T.T.K.K.G.D.S.S.V.V.V.n.n.$ - $ $   ~.",
"~.  Q.Q.T.T.J.G.G.G.S.S.V.M.n.v.z.- $ $ $ $   ~.",
"~.  T.T.T.K.G.G.S.S.Z.S.n.n.n.z.- $ $ # # #   ~.",
"~.  I.K.K.G.G.D.S.V.V.n.n.z.z.l.h.# # # X X   ~.",
"~.  K.K.G.D.S.S.V.V.n.n.z.z.l.h.g.d.d.X X X   ~.",
"~.  s.p.p.y.y.y.0.0.5.5.2.2.;.-.&.&.O.X.4 3   ~.",
"~.  s.p.y.y.q.0.0.5.5.2.;.;.-.&.&.O.X.} 3 3   ~.",
"~.  p.p.y.q.q.0.5.2.2.;.;.-.&.O.O.X.} } 3 ,   ~.",
"~.  P L q.q.q.0.5.2.;.-.-.&.O.X.} } [ ( , ,   ~.",
"~.  L J D 0.5.2.2.;.-.-.O.O.O.} } [ ( , , ,   ~.",
"~.  J J D S 5.2.;.-.-.&.O.X.} } [ [ , , : :   ~.",
"~.  J D S N N N v v c O.X.X.} [ ( ( / ~ ~ R   ~.",
"~.  q.S S N N M v c l l g g p i ( / / ~ R Y   ~.",
"~.  0.5.2.N M v c c l h g p i i t t 0 0 0 5   ~.",
"~.  0.5.2.;.-.-.&.O.h g p p i t t 0 0 0 5 5   ~.",
"~.  5.5.;.;.-.&.&.X.} } [ ( ( / ~ R R R Y Y   ~.",
"~.                                            ~.",
"~.~.~.~.~.~.~.~.~.~.~.~.~.~.~.~.~.~.~.~.~.~.~.~.",
"~.~.~.~.~.~.~.~.~.~.~.~.~.~.~.~.~.~.~.~.~.~.~.~."
};
