/* XPM */
static const char *toolbar_objedit[] = {
/* columns rows colors chars-per-pixel */
"24 24 176 2",
"   c black",
".  c #7F7F00000000",
"X  c #CDCD00003535",
"o  c red",
"O  c #8B8B82820000",
"+  c #8C8C82820000",
"@  c #8C8C83830000",
"#  c #8D8D83830000",
"$  c #8D8D84840000",
"%  c #8E8E85850000",
"&  c #8F8F85850000",
"*  c #8F8F86860000",
"=  c #909086860000",
"-  c #909087870000",
";  c #919188880000",
":  c #929288880000",
">  c #929289890000",
",  c #939389890000",
"<  c #93938A8A0000",
"1  c #95958B8B0000",
"2  c #96968C8C0000",
"3  c #97978D8D0000",
"4  c #97978E8E0000",
"5  c #98988E8E0000",
"6  c #9A9A90900000",
"7  c #9B9B91910000",
"8  c #9C9C92920000",
"9  c #9C9C93930000",
"0  c #9D9D93930000",
"q  c #9E9E93930000",
"w  c #9F9F94940000",
"e  c #A0A096960000",
"r  c #A0A097970000",
"t  c #A2A297970000",
"y  c #A2A298980000",
"u  c #A3A398980000",
"i  c #A2A29B9B0000",
"p  c #A4A499990000",
"a  c #A4A49A9A0000",
"s  c #A6A69B9B0000",
"d  c #A6A69C9C0000",
"f  c #A7A79D9D0000",
"g  c #A8A89E9E0000",
"h  c #A9A99E9E0000",
"j  c #A9A99F9F0000",
"k  c #AAAA9F9F0000",
"l  c #A9A9A2A20000",
"z  c #AAAAA0A00000",
"x  c #ABABA0A00000",
"c  c #ABABA1A10000",
"v  c #A9A9A4A40000",
"b  c #ACACA1A10000",
"n  c #ADADA2A20000",
"m  c #AEAEA3A30000",
"M  c #ADADA7A70000",
"N  c #AFAFA4A40000",
"B  c #B0B0A5A50000",
"V  c #B0B0A6A60000",
"C  c #B1B1A6A60000",
"Z  c #B1B1A7A70000",
"A  c #B2B2A7A70000",
"S  c #B2B2A8A80000",
"D  c #B3B3A8A80000",
"F  c #B2B2ACAC0000",
"G  c #B4B4A9A90000",
"H  c #B5B5ACAC0000",
"J  c #B4B4AEAE0000",
"K  c #B5B5AFAF0000",
"L  c #B7B7ACAC0000",
"P  c #B7B7ADAD0000",
"I  c #B8B8ADAD0000",
"U  c #B8B8AEAE0000",
"Y  c #B9B9AFAF0000",
"T  c #B8B8B4B40000",
"R  c #BABAB5B50000",
"E  c #BBBBB6B60000",
"W  c #BCBCB2B20000",
"Q  c #BCBCB3B30000",
"!  c #BCBCB7B70000",
"~  c #BEBEB4B40000",
"^  c #BFBFB5B50000",
"/  c #BDBDB8B80000",
"(  c #C0C0B6B60000",
")  c #C0C0BABA0000",
"_  c #C2C2B8B80000",
"`  c #C3C3B9B90000",
"'  c #C0C0BCBC0000",
"]  c #C2C2BDBD0000",
"[  c #C3C3BEBE0000",
"{  c #C4C4BABA0000",
"}  c #C4C4BBBB0000",
"|  c #C5C5BCBC0000",
" . c #C7C7BFBF0000",
".. c #C5C5C1C10000",
"X. c #C7C7C3C30000",
"o. c #C9C9C0C00000",
"O. c #C9C9C1C10000",
"+. c #C8C8C3C30000",
"@. c #CACAC1C10000",
"#. c #CBCBC3C30000",
"$. c #C8C8C4C40000",
"%. c #C9C9C5C50000",
"&. c #CBCBC6C60000",
"*. c #CBCBC7C70000",
"=. c #CCCCC4C40000",
"-. c #CECEC6C60000",
";. c #CCCCC8C80000",
":. c #CFCFCBCB0000",
">. c #D0D0C8C80000",
",. c #D1D1C9C90000",
"<. c #D2D2CACA0000",
"1. c #D2D2CBCB0000",
"2. c #D0D0CCCC0000",
"3. c #D1D1CDCD0000",
"4. c #D1D1CECE0000",
"5. c #D2D2CFCF0000",
"6. c #D3D3CFCF0000",
"7. c #D4D4CDCD0000",
"8. c #D3D3D0D00000",
"9. c #D7D7D1D10000",
"0. c #D6D6D2D20000",
"q. c #D7D7D3D30000",
"w. c #D7D7D4D40000",
"e. c #D8D8D2D20000",
"r. c #DADAD4D40000",
"t. c #DCDCD6D60000",
"y. c #DADAD8D80000",
"u. c #DCDCD9D90000",
"i. c #DCDCDADA0000",
"p. c #DDDDDADA0000",
"a. c #DFDFD9D90000",
"s. c #DEDEDBDB0000",
"d. c #DFDFDADA0000",
"f. c #DFDFDCDC0000",
"g. c #DFDFDDDD0000",
"h. c #E0E0DBDB0000",
"j. c #E1E1DCDC0000",
"k. c #E1E1DFDF0000",
"l. c #E3E3DEDE0000",
"z. c #E3E3E1E10000",
"x. c #E3E3E2E20000",
"c. c #E6E6E2E20000",
"v. c #E7E7E3E30000",
"b. c #E6E6E4E40000",
"n. c #E6E6E5E50000",
"m. c #E9E9E5E50000",
"M. c #E8E8E6E60000",
"N. c #E9E9E6E60000",
"B. c #EAEAE7E70000",
"V. c #EAEAE8E80000",
"C. c #EBEBE9E90000",
"Z. c #EBEBEBEB0000",
"A. c #ECECE9E90000",
"S. c #EDEDEBEB0000",
"D. c #EDEDECEC0000",
"F. c #EEEEEDED0000",
"G. c #EFEFEDED0000",
"H. c #F0F0EFEF0000",
"J. c #F1F1EFEF0000",
"K. c #F1F1F0F00000",
"L. c #F2F2F0F00000",
"P. c #F3F3F1F10000",
"I. c #F4F4F3F30000",
"U. c #F5F5F4F40000",
"Y. c #F6F6F4F40000",
"T. c #F6F6F5F50000",
"R. c #F7F7F5F50000",
"E. c #F8F8F8F80000",
"W. c #F9F9F8F80000",
"Q. c #FAFAF9F90000",
"!. c #FBFBFAFA0000",
"~. c #FCFCFCFC0000",
"^. c #FDFDFCFC0000",
"/. c #FEFEFEFE0000",
"(. c yellow",
"). c None",
/* pixels */
").).).).).).).).).).).).).).).).).).).).).).).).",
").).).).).).).).).).).).).).).).).).).).).).).).",
").).).).                                ).).).).",
").).).  E.U.I.K.K.H.  . .   Z.C.n.s.q.:.  ).).).",
").).    U.K.Z.C.N.N.  . .   C.x.u.8.%.]     ).).",
").).    H.C.b.z.s.u.  . .   g.y.8.X.! P     ).).",
").).  (.  z.u.q.8.4.  . .   w.4.%.! F   ~   ).).",
").).  (.  u.8.;.....  . .   :.%.] J z   Y   ).).",
").).  (.  0.;.] ! E   . .   %.] E N w   S   ).).",
").).  (.(.  ..~                 P v   F z   ).).",
").).  !.E.U.      o o o o o o       B n d   ).).",
").).  R.R.I.H.m.  o X X X X X   Y B g s 0   ).).",
").).  U.J.S.m.l.                B g s 7 2   ).).",
").).  H.A.v.h.r.7.-.  . .   G N g s 7 5 >   ).).",
").).  A.v.h.7.:.#.|   . .   n g e 7 2 > *   ).).",
").).  x.j.7.:.#.{ ~ Y     z s e 7 2 > $ $   ).).",
").).  g.7.<. .` ~ P S n z s e 5 < < # # #   ).).",
").).  h.7.=.{ W P B z g y 7 5 < * * # # O   ).).",
").).  7.-.{ W L B z d e 7 2 < * * # # # O   ).).",
").).).   .( Y A n s e 7 2 > * $ # # O O   ).).).",
").).).).                                ).).).).",
").).).).).).).).).).).).).).).).).).).).).).).).",
").).).).).).).).).).).).).).).).).).).).).).).).",
").).).).).).).).).).).).).).).).).).).).).).).)."
};
