/* XPM */
static const char *zoom_plus_x[] = {
/* columns rows colors chars-per-pixel */
"30 30 2 1",
"  c black",
". c None",
/* pixels */
"..............................",
"..............................",
"..............................",
"..............................",
".................     ........",
"...............  .....  ......",
".............. ......... .....",
"............. .....  .... ....",
"............ ......  ..... ...",
"............ ......  ..... ...",
"........... .......  ...... ..",
"........... ...          .. ..",
"........... ...          .. ..",
"........... .......  ...... ..",
"........... .......  ...... ..",
"............ ......  ..... ...",
"............ ......  ..... ...",
"............. ........... ....",
"............   ......... .....",
"........... ..   .....  ......",
".......... .. ...     ........",
"......... .. .................",
"........ .. ..................",
"....... .. ...................",
"...... .. ....................",
"..... .. .....................",
".... .. ......................",
"... .. .......................",
"..    ........................",
".............................."
};
